<?xml version="1.0" encoding="utf-8"?>
<!-- Generator: Adobe Illustrator 16.0.0, SVG Export Plug-In . SVG Version: 6.00 Build 0)  -->
<!DOCTYPE svg PUBLIC "-//W3C//DTD SVG 1.1//EN" "http://www.w3.org/Graphics/SVG/1.1/DTD/svg11.dtd">
<svg version="1.1" id="Layer_1" xmlns="http://www.w3.org/2000/svg" xmlns:xlink="http://www.w3.org/1999/xlink" x="0px" y="0px"
	 width="512px" height="512px" viewBox="0 0 512 512" enable-background="new 0 0 512 512" xml:space="preserve">
<linearGradient id="SVGID_1_" gradientUnits="userSpaceOnUse" x1="256.0005" y1="512.0002" x2="256.0005" y2="7.324219e-004">
	<stop  offset="0" style="stop-color:#E6E6E6"/>
	<stop  offset="1" style="stop-color:#FFFFFF"/>
</linearGradient>
<path fill="url(#SVGID_1_)" d="M512,392c0,66-54,120-120,120H120C54,512,0,458,0,392V120C0,54,54,0,120,0h272c66,0,120,54,120,120
	V392z"/>
<g>
	<path fill-rule="evenodd" clip-rule="evenodd" fill="#26A2E3" d="M187.54,210.445c0.028,0,0.054,0,0.082,0
		c0,21.656-0.122,43.315,0.142,64.969c0.036,3.009,1.961,5.993,3.015,8.988c2.603-1.353,5.743-2.163,7.728-4.136
		c40.933-40.741,81.755-81.592,122.549-122.473c8.859-8.876,8.843-14.385,0-23.287c-17.129-17.242-34.34-34.402-51.531-51.582
		c-11.454-11.446-16.02-11.502-27.451-0.063c-15.478,15.488-30.627,31.311-46.404,46.486c-5.688,5.471-8.314,11.23-8.215,19.015
		C187.709,169.053,187.54,189.75,187.54,210.445z M256.711,437.691c3.696-2.278,7.596-3.813,10.346-6.517
		c18.873-18.556,37.584-37.277,56.175-56.115c7.175-7.268,7.302-13.334,0.042-20.744c-18.688-19.08-37.58-37.962-56.613-56.701
		c-6.521-6.424-13.179-6.399-19.748,0.066c-19.207,18.904-38.271,37.957-57.147,57.189c-6.638,6.767-6.589,12.797,0.113,19.619
		c19.058,19.392,38.332,38.572,57.688,57.667C249.831,434.389,253.131,435.573,256.711,437.691z M438.372,255.835
		c-2.069-3.523-3.314-7.06-5.694-9.478c-19.066-19.368-38.268-38.606-57.604-57.703c-6.194-6.115-12.354-6.511-18.499-0.518
		c-19.791,19.318-39.331,38.9-58.696,58.646c-5.731,5.844-5.612,12.18,0.085,17.977c19.215,19.554,38.555,38.988,58.123,58.188
		c6.564,6.441,12.654,6.398,19.063,0.1c19.213-18.884,38.23-37.965,57.116-57.176C434.814,263.28,436.178,259.522,438.372,255.835z
		 M141.139,256.07c0-19.477,0.107-38.956-0.13-58.431c-0.03-2.525-1.838-5.029-2.823-7.543c-2.199,1.151-4.851,1.849-6.527,3.524
		c-17.52,17.507-34.896,35.156-52.277,52.798c-7.664,7.777-7.682,11.586,0.023,19.334c17.129,17.218,34.267,34.428,51.557,51.482
		c2.004,1.977,4.991,2.957,7.523,4.398c0.89-2.857,2.516-5.707,2.553-8.574C141.266,294.066,141.156,275.068,141.139,256.07z"/>
	<path fill-rule="evenodd" clip-rule="evenodd" fill="#26A2E3" d="M187.453,148.363c-0.1-7.784,2.526-13.544,8.215-19.015
		c15.777-15.176,30.927-30.998,46.404-46.486c11.432-11.439,15.997-11.384,27.451,0.063c17.191,17.18,34.402,34.34,51.531,51.582
		c8.843,8.902,8.859,14.411,0,23.287c-40.794,40.881-81.616,81.731-122.549,122.473c-1.984,1.973-5.125,2.783-7.728,4.136
		c-1.054-2.995-2.979-5.979-3.015-8.988C187.5,253.76,187.709,169.053,187.453,148.363z"/>
	<path fill-rule="evenodd" clip-rule="evenodd" fill="#26A2E3" d="M256.711,437.691c-3.58-2.118-6.88-3.302-9.145-5.535
		c-19.356-19.095-38.631-38.275-57.688-57.667c-6.702-6.822-6.751-12.853-0.113-19.619c18.877-19.232,37.94-38.285,57.147-57.189
		c6.569-6.466,13.227-6.49,19.748-0.066c19.033,18.739,37.926,37.621,56.613,56.701c7.26,7.41,7.133,13.477-0.042,20.744
		c-18.591,18.838-37.302,37.56-56.175,56.115C264.307,433.877,260.407,435.412,256.711,437.691z"/>
	<path fill-rule="evenodd" clip-rule="evenodd" fill="#26A2E3" d="M438.372,255.835c-2.194,3.687-3.558,7.444-6.106,10.036
		c-18.886,19.211-37.903,38.292-57.116,57.176c-6.409,6.299-12.499,6.342-19.063-0.1c-19.568-19.199-38.908-38.634-58.123-58.188
		c-5.697-5.797-5.816-12.133-0.085-17.977c19.365-19.746,38.905-39.328,58.696-58.646c6.145-5.993,12.305-5.598,18.499,0.518
		c19.337,19.097,38.538,38.335,57.604,57.703C435.058,248.776,436.303,252.312,438.372,255.835z"/>
	<path fill-rule="evenodd" clip-rule="evenodd" fill="#26A2E3" d="M141.037,313.059c-0.037,2.867-1.663,5.717-2.553,8.574
		c-2.532-1.441-5.52-2.422-7.523-4.398c-17.29-17.055-34.428-34.265-51.557-51.482c-7.705-7.748-7.688-11.557-0.023-19.334
		c17.381-17.642,34.758-35.291,52.277-52.798c1.677-1.676,4.328-2.373,6.527-3.524c0.985,2.514,2.793,5.018,2.823,7.543
		C141.246,217.114,141.266,294.066,141.037,313.059z"/>
</g>
</svg>
