<?xml version="1.0" encoding="utf-8"?>
<!-- Generator: Adobe Illustrator 16.0.0, SVG Export Plug-In . SVG Version: 6.00 Build 0)  -->
<!DOCTYPE svg PUBLIC "-//W3C//DTD SVG 1.1//EN" "http://www.w3.org/Graphics/SVG/1.1/DTD/svg11.dtd">
<svg version="1.1" id="Layer_1" xmlns="http://www.w3.org/2000/svg" xmlns:xlink="http://www.w3.org/1999/xlink" x="0px" y="0px"
	 width="512px" height="512px" viewBox="0 0 512 512" enable-background="new 0 0 512 512" xml:space="preserve">
<path fill="#FF0000" d="M392,0H120C54,0,0,54,0,120v272c0,66,54,120,120,120h272c66,0,120-54,120-120V120C512,54,458,0,392,0z"/>
<g>
	<path fill="#FFFFFF" d="M177.205,177.697c0,34.187-27.432,56.553-56.554,56.553c-32.919,0-55.286-24.899-55.286-54.441
		c-0.422-32.497,24.9-56.976,56.132-56.976C156.104,122.833,177.205,148.998,177.205,177.697z M88.154,179.808
		c0,19.413,14.35,34.605,32.92,34.605c18.992,0,33.342-15.614,33.342-36.295c0-15.615-9.286-35.449-33.342-35.449
		C99.127,142.67,88.154,161.661,88.154,179.808z"/>
	<path fill="#FFFFFF" d="M418.188,402.644c-13.506,6.753-40.516,13.506-75.123,13.506c-80.188,0-140.539-50.646-140.539-143.916
		c0-89.05,60.352-149.401,148.558-149.401c35.452,0,57.819,7.597,67.526,12.66l-8.862,29.966
		c-13.928-6.754-33.764-11.817-57.398-11.817c-66.682,0-110.996,42.626-110.996,117.327c0,69.637,40.094,114.373,109.308,114.373
		c22.369,0,45.159-4.644,59.931-11.817L418.188,402.644z"/>
</g>
</svg>
