<?xml version="1.0" encoding="utf-8"?>
<!-- Generator: Adobe Illustrator 16.0.0, SVG Export Plug-In . SVG Version: 6.00 Build 0)  -->
<!DOCTYPE svg PUBLIC "-//W3C//DTD SVG 1.1//EN" "http://www.w3.org/Graphics/SVG/1.1/DTD/svg11.dtd">
<svg version="1.1" id="Layer_1" xmlns="http://www.w3.org/2000/svg" xmlns:xlink="http://www.w3.org/1999/xlink" x="0px" y="0px"
	 width="512px" height="512px" viewBox="0 0 512 512" enable-background="new 0 0 512 512" xml:space="preserve">
<path fill="#54A8FD" d="M512,392c0,66-54,120-120,120H120C54,512,0,458,0,392V120C0,54,54,0,120,0h272c66,0,120,54,120,120V392z"/>
<path fill="#FFFFFF" d="M346.34,188.244h52.404c-6.59-13.762-14.854-26.203-24.791-37.315
	c-9.941-11.117-21.115-20.614-33.524-28.498c-12.411-7.879-25.791-13.938-40.142-18.175c-14.352-4.231-29.113-6.35-44.287-6.35
	c-14.468,0-28.438,1.884-41.906,5.646c-13.47,3.768-26.055,9.088-37.759,15.969c-11.706,6.881-22.381,15.147-32.025,24.791
	c-9.646,9.645-17.908,20.32-24.79,32.022c-6.881,11.707-12.205,24.294-15.968,37.761c-3.767,13.473-5.646,27.436-5.646,41.903
	c0,14.472,1.879,28.438,5.646,41.908c3.763,13.469,9.087,26.056,15.968,37.76c6.881,11.705,15.144,22.381,24.79,32.023
	c9.644,9.645,20.32,17.91,32.025,24.791c11.704,6.881,24.261,12.204,37.671,15.969c13.41,3.764,27.407,5.645,41.994,5.645
	c17.645,0,34.643-2.85,50.992-8.557c16.35-5.704,31.229-13.674,44.641-23.91c13.41-10.231,25.025-22.436,34.85-36.61
	c9.818-14.174,17.085-29.788,21.79-46.847l21.702,5.998c-5.295,19.528-13.56,37.406-24.791,53.642
	c-11.232,16.231-24.524,30.201-39.875,41.903c-15.352,11.707-32.352,20.793-50.993,27.263c-18.646,6.469-38.085,9.705-58.314,9.705
	c-16.586,0-32.585-2.146-47.994-6.443c-15.411-4.29-29.818-10.348-43.229-18.17c-13.409-7.823-25.614-17.232-36.611-28.234
	c-11.001-10.995-20.41-23.199-28.231-36.611c-7.825-13.409-13.881-27.788-18.174-43.141c-4.296-15.35-6.44-31.376-6.44-48.082
	c0-16.584,2.144-32.58,6.44-47.992c4.293-15.406,10.349-29.817,18.174-43.229c7.822-13.41,17.23-25.611,28.231-36.611
	c10.998-11,23.202-20.408,36.611-28.231c13.411-7.822,27.791-13.877,43.141-18.175c15.351-4.292,31.376-6.44,48.081-6.44
	c16.468,0,32.467,2.178,47.994,6.529c15.525,4.354,30.141,10.559,43.846,18.612c13.701,8.061,26.172,17.854,37.406,29.379
	c11.231,11.531,20.848,24.525,28.848,38.992V120.49h22.586v90.34h-90.34V188.244z M256,165.66v96.867l64.402,64.578l-15.882,15.881
	l-71.106-70.93V165.66H256z"/>
</svg>
