<?xml version="1.0" encoding="utf-8"?>
<!-- Generator: Adobe Illustrator 16.0.0, SVG Export Plug-In . SVG Version: 6.00 Build 0)  -->
<!DOCTYPE svg PUBLIC "-//W3C//DTD SVG 1.1//EN" "http://www.w3.org/Graphics/SVG/1.1/DTD/svg11.dtd">
<svg version="1.1" id="Layer_1" xmlns="http://www.w3.org/2000/svg" xmlns:xlink="http://www.w3.org/1999/xlink" x="0px" y="0px"
	 width="512px" height="512px" viewBox="0 0 512 512" enable-background="new 0 0 512 512" xml:space="preserve">
<g>
	<g>
		<path fill="#999999" d="M512,392c0,66-54,120-120,120H120C54,512,0,458,0,392V120C0,54,54,0,120,0h272c66,0,120,54,120,120V392z"
			/>
		<g>
			<path fill="#C2C1C6" d="M0,120C0,54,54,0,120,0h272c66,0,120,54,120,120v207.443c0,66-54,120-120,120H120c-66,0-120-54-120-120
				V120z"/>
		</g>
	</g>
	<g>
		<circle fill="#6D6E70" cx="50.883" cy="69.506" r="9.523"/>
		<circle fill="#6D6E70" cx="461.113" cy="69.506" r="9.523"/>
		<circle fill="#6D6E70" cx="50.883" cy="383.021" r="9.523"/>
		<circle fill="#6D6E70" cx="461.113" cy="383.021" r="9.523"/>
		
			<linearGradient id="SVGID_1_" gradientUnits="userSpaceOnUse" x1="404.3828" y1="23.925" x2="404.3828" y2="45.175" gradientTransform="matrix(1 0 0 -1 0.04 511.064)">
			<stop  offset="0" style="stop-color:#009445"/>
			<stop  offset="1" style="stop-color:#88FF54"/>
		</linearGradient>
		<circle fill="url(#SVGID_1_)" cx="404.422" cy="476.514" r="10.625"/>
	</g>
	<g>
		
			<linearGradient id="SVGID_2_" gradientUnits="userSpaceOnUse" x1="85.667" y1="291.7693" x2="426.249" y2="291.7693" gradientTransform="matrix(1 0 0 -1 0.04 511.064)">
			<stop  offset="0" style="stop-color:#E7E7E8"/>
			<stop  offset="1" style="stop-color:#58595B"/>
		</linearGradient>
		<path fill="url(#SVGID_2_)" d="M391.57,162.438V13.695L309,105.957c-16.688-5.242-34.492-8.115-53.004-8.115
			c-94.047,0-170.289,73.214-170.289,163.523c0,90.314,76.242,163.529,170.289,163.529c94.055,0,170.293-73.215,170.293-163.529
			C426.289,224.18,413.34,189.91,391.57,162.438z"/>
		<path fill="#C2C1C6" d="M378.344,166.826V51.799l-62.68,70.039c-18.398-7.266-38.539-11.297-59.668-11.297
			c-86.742,0-157.066,67.529-157.066,150.824c0,83.299,70.324,150.828,157.066,150.828c86.754,0,157.065-67.529,157.065-150.828
			C413.063,225.563,400.047,192.695,378.344,166.826z"/>
		
			<linearGradient id="SVGID_3_" gradientUnits="userSpaceOnUse" x1="209.6631" y1="249.696" x2="302.249" y2="249.696" gradientTransform="matrix(1 0 0 -1 0.04 511.064)">
			<stop  offset="0" style="stop-color:#E7E7E8"/>
			<stop  offset="1" style="stop-color:#58595B"/>
		</linearGradient>
		<path fill="url(#SVGID_3_)" d="M302.289,261.365c0,24.555-20.719,44.459-46.293,44.459c-25.566,0-46.293-19.904-46.293-44.459
			c0-24.549,20.727-44.453,46.293-44.453C281.57,216.912,302.289,236.816,302.289,261.365z"/>
		<path fill="#C2C1C6" d="M292.371,261.365c0,19.291-16.281,34.93-36.375,34.93c-20.086,0-36.371-15.639-36.371-34.93
			c0-19.287,16.285-34.93,36.371-34.93C276.09,226.436,292.371,242.078,292.371,261.365z"/>
	</g>
	<g>
		<rect x="93.77" y="45.531" fill="#999999" width="150.957" height="35.043"/>
		<rect x="99.863" y="50.102" fill="#C2C1C6" width="138.766" height="25.901"/>
		<rect x="99.863" y="50.102" fill="#C2C1C6" width="138.766" height="25.901"/>
		<rect x="99.863" y="50.102" fill="#C2C1C6" width="138.766" height="25.901"/>
		<rect x="102.91" y="53.148" fill="#020202" width="132.676" height="19.807"/>
	</g>
</g>
</svg>
