<?xml version="1.0" encoding="utf-8"?>
<!-- Generator: Adobe Illustrator 16.0.0, SVG Export Plug-In . SVG Version: 6.00 Build 0)  -->
<!DOCTYPE svg PUBLIC "-//W3C//DTD SVG 1.1//EN" "http://www.w3.org/Graphics/SVG/1.1/DTD/svg11.dtd">
<svg version="1.1" id="Layer_1" xmlns="http://www.w3.org/2000/svg" xmlns:xlink="http://www.w3.org/1999/xlink" x="0px" y="0px"
	 width="512px" height="512px" viewBox="0 0 512 512" enable-background="new 0 0 512 512" xml:space="preserve">
<g>
	
		<linearGradient id="SVGID_1_" gradientUnits="userSpaceOnUse" x1="-2097.4004" y1="2480.0098" x2="-2097.4004" y2="2992.0098" gradientTransform="matrix(1 0 0 -1 2353.4004 2993.0098)">
		<stop  offset="0" style="stop-color:#1E75BB"/>
		<stop  offset="1" style="stop-color:#56A9FF"/>
	</linearGradient>
	<path fill="url(#SVGID_1_)" d="M512,393c0,66-54,120-120,120H120C54,513,0,459,0,393V121C0,55,54,1,120,1h272c66,0,120,54,120,120
		V393z"/>
	<g>
		<path fill="#CCEEFF" d="M120,513h272c58.291,0,107.212-42.125,117.848-97.434l-73.747-196.662l-112.97,91.789l-49.425-148.28
			L7.722,435.221C24.899,480.551,68.841,513,120,513z"/>
		<circle fill="#CCEEFF" cx="125.887" cy="148.359" r="55.9"/>
	</g>
</g>
</svg>
