<?xml version="1.0" encoding="utf-8"?>
<!-- Generator: Adobe Illustrator 16.0.0, SVG Export Plug-In . SVG Version: 6.00 Build 0)  -->
<!DOCTYPE svg PUBLIC "-//W3C//DTD SVG 1.1//EN" "http://www.w3.org/Graphics/SVG/1.1/DTD/svg11.dtd">
<svg version="1.1" id="Layer_1" xmlns="http://www.w3.org/2000/svg" xmlns:xlink="http://www.w3.org/1999/xlink" x="0px" y="0px"
	 width="512px" height="512px" viewBox="0 0 512 512" enable-background="new 0 0 512 512" xml:space="preserve">
<g>
	<path fill="#FFFF00" d="M392,0c66,0,120,54,120,120v272c0,66-54,120-120,120H120C54,512,0,458,0,392V120C0,54,54,0,120,0H392z"/>
</g>
<g>
	<path d="M95.858,100.172h-0.225l-13.901,6.614l-2.803-12.78l19.282-8.969h14.126v72.87H95.858V100.172z"/>
	<path d="M190.139,121.135c0,22.533-9.08,38.005-27.689,38.005c-18.834,0-27.131-16.928-27.242-37.556
		c0-21.077,8.968-37.78,27.802-37.78C182.516,83.804,190.139,101.18,190.139,121.135z M152.359,121.585
		c-0.113,16.704,3.924,24.663,10.538,24.663s10.201-8.296,10.201-24.888c0-16.144-3.475-24.664-10.313-24.664
		C156.507,96.696,152.246,104.656,152.359,121.585z"/>
	<path d="M220.295,100.172h-0.225l-13.901,6.614l-2.803-12.78l19.282-8.969h14.127v72.87h-16.48V100.172z"/>
	<path d="M314.575,121.135c0,22.533-9.08,38.005-27.689,38.005c-18.835,0-27.131-16.928-27.243-37.556
		c0-21.077,8.969-37.78,27.803-37.78C306.952,83.804,314.575,101.18,314.575,121.135z M276.796,121.585
		c-0.112,16.704,3.924,24.663,10.538,24.663c6.613,0,10.201-8.296,10.201-24.888c0-16.144-3.475-24.664-10.313-24.664
		C280.943,96.696,276.684,104.656,276.796,121.585z"/>
	<path d="M344.73,100.172h-0.224l-13.901,6.614l-2.803-12.78l19.282-8.969h14.126v72.87h-16.48V100.172z"/>
	<path d="M439.012,121.135c0,22.533-9.08,38.005-27.689,38.005c-18.835,0-27.131-16.928-27.243-37.556
		c0-21.077,8.969-37.78,27.803-37.78C431.389,83.804,439.012,101.18,439.012,121.135z M401.232,121.585
		c-0.113,16.704,3.924,24.663,10.537,24.663c6.615,0,10.202-8.296,10.202-24.888c0-16.144-3.475-24.664-10.313-24.664
		C405.38,96.696,401.119,104.656,401.232,121.585z"/>
	<path d="M127.921,255.664c0,22.533-9.08,38.004-27.69,38.004c-18.834,0-27.131-16.928-27.242-37.556
		c0-21.076,8.969-37.78,27.803-37.78C120.298,218.332,127.921,235.709,127.921,255.664z M90.141,256.112
		c-0.112,16.704,3.924,24.663,10.538,24.663s10.202-8.295,10.202-24.887c0-16.145-3.475-24.664-10.313-24.664
		C94.289,231.224,90.028,239.184,90.141,256.112z"/>
	<path d="M158.076,234.699h-0.225l-13.9,6.615l-2.803-12.781l19.282-8.968h14.126v72.87h-16.48V234.699z"/>
	<path d="M252.357,255.664c0,22.533-9.08,38.004-27.69,38.004c-18.834,0-27.13-16.928-27.242-37.556
		c0-21.076,8.968-37.78,27.803-37.78C244.734,218.332,252.357,235.709,252.357,255.664z M214.578,256.112
		c-0.113,16.704,3.923,24.663,10.537,24.663s10.201-8.295,10.201-24.887c0-16.145-3.475-24.664-10.313-24.664
		C218.725,231.224,214.465,239.184,214.578,256.112z"/>
	<path d="M282.513,234.699h-0.225l-13.9,6.615l-2.804-12.781l19.283-8.968h14.126v72.87h-16.48V234.699z"/>
	<path d="M376.793,255.664c0,22.533-9.079,38.004-27.689,38.004c-18.834,0-27.131-16.928-27.242-37.556
		c0-21.076,8.968-37.78,27.803-37.78C369.171,218.332,376.793,235.709,376.793,255.664z M339.014,256.112
		c-0.112,16.704,3.924,24.663,10.538,24.663s10.202-8.295,10.202-24.887c0-16.145-3.476-24.664-10.314-24.664
		C343.161,231.224,338.901,239.184,339.014,256.112z"/>
	<path d="M406.949,234.699h-0.225l-13.9,6.615l-2.803-12.781l19.281-8.968h14.127v72.87h-16.48V234.699z"/>
	<path d="M95.858,369.226h-0.225l-13.901,6.614l-2.803-12.78l19.282-8.968h14.126v72.869H95.858V369.226z"/>
	<path d="M190.139,390.19c0,22.534-9.08,38.005-27.689,38.005c-18.834,0-27.131-16.928-27.242-37.556
		c0-21.077,8.968-37.78,27.802-37.78C182.516,352.859,190.139,370.235,190.139,390.19z M152.359,390.639
		c-0.113,16.704,3.924,24.663,10.538,24.663s10.201-8.295,10.201-24.888c0-16.144-3.475-24.664-10.313-24.664
		C156.507,365.751,152.246,373.711,152.359,390.639z"/>
	<path d="M220.295,369.226h-0.225l-13.901,6.614l-2.803-12.78l19.282-8.968h14.127v72.869h-16.48V369.226z"/>
	<path d="M314.575,390.19c0,22.534-9.08,38.005-27.689,38.005c-18.835,0-27.131-16.928-27.243-37.556
		c0-21.077,8.969-37.78,27.803-37.78C306.952,352.859,314.575,370.235,314.575,390.19z M276.796,390.639
		c-0.112,16.704,3.924,24.663,10.538,24.663c6.613,0,10.201-8.295,10.201-24.888c0-16.144-3.475-24.664-10.313-24.664
		C280.943,365.751,276.684,373.711,276.796,390.639z"/>
	<path d="M344.73,369.226h-0.224l-13.901,6.614l-2.803-12.78l19.282-8.968h14.126v72.869h-16.48V369.226z"/>
	<path d="M439.012,390.19c0,22.534-9.08,38.005-27.689,38.005c-18.835,0-27.131-16.928-27.243-37.556
		c0-21.077,8.969-37.78,27.803-37.78C431.389,352.859,439.012,370.235,439.012,390.19z M401.232,390.639
		c-0.113,16.704,3.924,24.663,10.537,24.663c6.615,0,10.202-8.295,10.202-24.888c0-16.144-3.475-24.664-10.313-24.664
		C405.38,365.751,401.119,373.711,401.232,390.639z"/>
</g>
</svg>
