<?xml version="1.0" encoding="utf-8"?>
<!-- Generator: Adobe Illustrator 16.0.0, SVG Export Plug-In . SVG Version: 6.00 Build 0)  -->
<!DOCTYPE svg PUBLIC "-//W3C//DTD SVG 1.1//EN" "http://www.w3.org/Graphics/SVG/1.1/DTD/svg11.dtd">
<svg version="1.1" id="Layer_1" xmlns="http://www.w3.org/2000/svg" xmlns:xlink="http://www.w3.org/1999/xlink" x="0px" y="0px"
	 width="512px" height="512px" viewBox="0 0 512 512" enable-background="new 0 0 512 512" xml:space="preserve">
<linearGradient id="SVGID_1_" gradientUnits="userSpaceOnUse" x1="255.9995" y1="513" x2="255.9995" y2="1.0005">
	<stop  offset="0" style="stop-color:#E6E6E6"/>
	<stop  offset="1" style="stop-color:#FFFFFF"/>
</linearGradient>
<path fill="url(#SVGID_1_)" d="M392,1H120C54,1,0,55,0,121v272c0,66,54,120,120,120h272c65.999,0,119.999-54,119.999-120V121
	C511.999,55,457.999,1,392,1z"/>
<g>
	<linearGradient id="SVGID_2_" gradientUnits="userSpaceOnUse" x1="290.498" y1="551.9551" x2="290.498" y2="-35.8933">
		<stop  offset="0" style="stop-color:#2B38DE"/>
		<stop  offset="1" style="stop-color:#26D9E0"/>
	</linearGradient>
	<path fill="url(#SVGID_2_)" d="M290.354,38.431c-11.79,0-21.787,4.157-30,12.464c-8.217,8.311-12.319,18.36-12.319,30.144
		c0,11.79,4.153,21.839,12.464,30.146c8.307,8.31,18.262,12.464,29.855,12.464c11.785,0,21.834-4.154,30.145-12.464
		c8.308-8.306,12.465-18.355,12.465-30.146c0-11.784-4.111-21.833-12.318-30.144C312.428,42.588,302.333,38.431,290.354,38.431z"/>
	<linearGradient id="SVGID_3_" gradientUnits="userSpaceOnUse" x1="238.6157" y1="551.9297" x2="238.6157" y2="-35.7802">
		<stop  offset="0" style="stop-color:#2B38DE"/>
		<stop  offset="1" style="stop-color:#26D9E0"/>
	</linearGradient>
	<path fill="url(#SVGID_3_)" d="M308.324,172.5h-17.392l-98.26,15.574l-3.77,11.409c4.06-0.19,7.538-0.382,10.435-0.382
		c6.379,0,11.402,1.598,15.073,4.882c3.669,3.287,5.51,7.032,5.51,11.28c0,6.767-1.935,16.8-5.798,30.133L173.831,383.94
		c-3.287,11.015-4.925,20.097-4.925,27.244c0,10.823,3.719,19.758,11.159,26.809c7.435,7.052,17.435,10.579,29.999,10.579
		c32.848,0,63.861-25.407,93.045-76.231l-9.856-5.797c-12.173,18.745-22.608,31.692-31.306,38.84
		c-3.289,2.899-6.57,4.348-9.854,4.348c-1.935,0-3.769-0.915-5.509-2.753c-1.738-1.834-2.605-3.813-2.605-5.942
		c0-3.668,1.639-11.03,4.925-22.819L308.324,172.5z"/>
</g>
</svg>
