<?xml version="1.0" encoding="utf-8"?>
<!-- Generator: Adobe Illustrator 16.0.0, SVG Export Plug-In . SVG Version: 6.00 Build 0)  -->
<!DOCTYPE svg PUBLIC "-//W3C//DTD SVG 1.1//EN" "http://www.w3.org/Graphics/SVG/1.1/DTD/svg11.dtd">
<svg version="1.1" id="Layer_1" xmlns="http://www.w3.org/2000/svg" xmlns:xlink="http://www.w3.org/1999/xlink" x="0px" y="0px"
	 width="512px" height="512px" viewBox="0 0 512 512" enable-background="new 0 0 512 512" xml:space="preserve">
<path fill="#FAA23D" d="M392,0c66,0,120,54,120,120v272c0,66-54,120-120,120H120C54,512,0,458,0,392V120C0,54,54,0,120,0H392z"/>
<path d="M459.5,77.5v-17h-408v17h196v45.852c-76,4.253-135.077,66.77-135.077,143.015S171.5,405.128,247.5,409.381V476.5h16v-67.119
	c75-4.253,135.077-66.77,135.077-143.015S338.5,127.604,263.5,123.351V77.5H459.5z M128.775,266.366
	c0-67.226,52.725-122.399,118.725-126.63v253.26C181.5,388.765,128.775,333.592,128.775,266.366z M382.225,266.366
	c0,67.226-52.725,122.399-118.725,126.63v-253.26C329.5,143.967,382.225,199.14,382.225,266.366z"/>
</svg>
