<?xml version="1.0" encoding="utf-8"?>
<!-- Generator: Adobe Illustrator 16.0.0, SVG Export Plug-In . SVG Version: 6.00 Build 0)  -->
<!DOCTYPE svg PUBLIC "-//W3C//DTD SVG 1.1//EN" "http://www.w3.org/Graphics/SVG/1.1/DTD/svg11.dtd">
<svg version="1.1" id="Layer_1" xmlns="http://www.w3.org/2000/svg" xmlns:xlink="http://www.w3.org/1999/xlink" x="0px" y="0px"
	 width="512px" height="512px" viewBox="0 0 512 512" enable-background="new 0 0 512 512" xml:space="preserve">
<g>
	<path fill="#6FCCF1" d="M392,0H120C54,0,0,54,0,120v272c0,66,54,120,120,120h272c66,0,120-54,120-120V120C512,54,458,0,392,0z"/>
	<g>
		<polygon fill="#0071BC" points="371.367,358.85 144.555,358.85 144.555,170.805 240.23,170.805 240.23,141.223 114.973,141.223 
			114.973,388.434 400.953,388.434 400.953,284.15 371.367,284.15 		"/>
	</g>
	<path fill="#0071BC" d="M335.34,221.111v36.645l89.23-71.451l-89.23-75.268v40.715c-102.137,18.83-143.152,120.334-143.152,120.334
		C199.609,262.621,269.898,211.594,335.34,221.111z"/>
</g>
</svg>
