<?xml version="1.0" encoding="utf-8"?>
<!-- Generator: Adobe Illustrator 16.0.0, SVG Export Plug-In . SVG Version: 6.00 Build 0)  -->
<!DOCTYPE svg PUBLIC "-//W3C//DTD SVG 1.1//EN" "http://www.w3.org/Graphics/SVG/1.1/DTD/svg11.dtd">
<svg version="1.1" id="Layer_1" xmlns="http://www.w3.org/2000/svg" xmlns:xlink="http://www.w3.org/1999/xlink" x="0px" y="0px"
	 width="512px" height="512px" viewBox="0 0 512 512" enable-background="new 0 0 512 512" xml:space="preserve">
<path fill="#007ACC" d="M392,0H120C54,0,0,54,0,120v272c0,66,54,120,120,120h272c66,0,120-54,120-120V120C512,54,458,0,392,0z"/>
<g>
	<polygon fill="#FFFFFF" points="219.474,251.138 219.474,141.539 119.167,161.54 119.167,251.138 	"/>
	<polygon fill="#FFFFFF" points="232.145,251.138 392.833,251.138 392.833,107 232.145,139.025 	"/>
	<polygon fill="#FFFFFF" points="219.474,259.893 119.167,259.893 119.167,347.545 219.474,368.607 	"/>
	<polygon fill="#FFFFFF" points="232.145,259.893 232.145,371.263 392.833,405 392.833,259.893 	"/>
</g>
</svg>
