<?xml version="1.0" encoding="utf-8"?>
<!-- Generator: Adobe Illustrator 16.0.0, SVG Export Plug-In . SVG Version: 6.00 Build 0)  -->
<!DOCTYPE svg PUBLIC "-//W3C//DTD SVG 1.1//EN" "http://www.w3.org/Graphics/SVG/1.1/DTD/svg11.dtd">
<svg version="1.1" id="Layer_1" xmlns="http://www.w3.org/2000/svg" xmlns:xlink="http://www.w3.org/1999/xlink" x="0px" y="0px"
	 width="512px" height="512px" viewBox="0 0 512 512" enable-background="new 0 0 512 512" xml:space="preserve">
<linearGradient id="SVGID_1_" gradientUnits="userSpaceOnUse" x1="256.0005" y1="511.9998" x2="256.0005" y2="2.441406e-004">
	<stop  offset="0" style="stop-color:#E6E6E6"/>
	<stop  offset="1" style="stop-color:#FFFFFF"/>
</linearGradient>
<path fill="url(#SVGID_1_)" d="M512,392c0,66-54,120-120,120H120C54,512,0,458,0,392V120C0,54,54,0,120,0h272c66,0,120,54,120,120
	V392z"/>
<g>
	<g>
		<g>
			<path fill="#4169E2" d="M299.793,138.584c0,8.377-6.854,15.232-15.232,15.232h-55.852c-8.378,0-15.232-6.855-15.232-15.232
				V82.732c0-8.377,6.854-15.232,15.232-15.232h55.852c8.378,0,15.232,6.855,15.232,15.232V138.584z"/>
		</g>
		<g>
			<path fill="#4169E2" d="M299.793,429.267c0,8.377-6.854,15.232-15.232,15.232h-55.852c-8.378,0-15.232-6.855-15.232-15.232
				v-55.852c0-8.377,6.854-15.232,15.232-15.232h55.852c8.378,0,15.232,6.855,15.232,15.232V429.267z"/>
		</g>
		<g>
			<path fill="#4169E2" d="M138.584,213.476c8.378,0,15.232,6.854,15.232,15.232v55.852c0,8.377-6.854,15.232-15.232,15.232H82.732
				c-8.378,0-15.232-6.855-15.232-15.232v-55.852c0-8.378,6.854-15.232,15.232-15.232H138.584z"/>
		</g>
		<g>
			<path fill="#4169E2" d="M429.268,213.476c8.378,0,15.232,6.854,15.232,15.232v55.852c0,8.377-6.854,15.232-15.232,15.232h-55.852
				c-8.378,0-15.232-6.855-15.232-15.232v-55.852c0-8.378,6.854-15.232,15.232-15.232H429.268z"/>
		</g>
	</g>
</g>
<g>
	<g>
		<path fill="#4169E2" d="M318.5,125.5h21.788c25.892,0,46.212,20.32,46.212,46.212V194.5h28v-22.788
			c0-41.29-32.922-74.212-74.212-74.212H318.5V125.5z"/>
		<path fill="#4169E2" d="M124.5,194.5v-22.788c0-25.892,22.32-46.212,48.212-46.212H194.5v-28h-21.788
			c-41.291,0-76.212,32.922-76.212,74.212V194.5H124.5z"/>
		<path fill="#4169E2" d="M194.5,387.5h-21.788c-25.892,0-48.212-22.32-48.212-48.213V318.5h-28v20.787
			c0,41.291,34.922,76.213,76.212,76.213H194.5V387.5z"/>
		<path fill="#4169E2" d="M386.5,318.5v20.787c0,25.893-20.32,48.213-46.212,48.213H318.5v28h21.788
			c41.29,0,74.212-34.922,74.212-76.213V318.5H386.5z"/>
	</g>
</g>
</svg>
