<?xml version="1.0" encoding="utf-8"?>
<!-- Generator: Adobe Illustrator 16.0.0, SVG Export Plug-In . SVG Version: 6.00 Build 0)  -->
<!DOCTYPE svg PUBLIC "-//W3C//DTD SVG 1.1//EN" "http://www.w3.org/Graphics/SVG/1.1/DTD/svg11.dtd">
<svg version="1.1" id="Layer_1" xmlns="http://www.w3.org/2000/svg" xmlns:xlink="http://www.w3.org/1999/xlink" x="0px" y="0px"
	 width="512px" height="512px" viewBox="0 0 512 512" enable-background="new 0 0 512 512" xml:space="preserve">
<g>
	<g>
		<g>
			<polygon fill="#64A405" points="336.5,0.5 63.5,0.5 63.5,512.5 448.5,512.5 448.5,113.5 336.5,113.5 			"/>
		</g>
		<g>
			<polygon fill="#AFD484" points="336.5,0.318 336.5,113.5 448.518,113.5 			"/>
		</g>
	</g>
</g>
<g>
	<g>
		<path fill="#AFD484" d="M243.479,384.5h25.043c26.986-20,81.705-94.362,81.705-137.424c0-52.034-42.189-75.133-94.227-75.133
			s-94.227,23.737-94.227,75.786C161.773,290.781,216.492,364.5,243.479,384.5z"/>
		<rect x="241.5" y="400.5" fill="#AFD484" width="29" height="11"/>
		<g>
			<g>
				<path fill="#64A405" d="M256.74,170.655c-25.881,0-46.867,26.646-46.867,73.259c0,60.422,34.553,117.958,43.674,132.098
					c-6.871-17.752-22.462-64.016-22.462-118.281C231.085,196.307,242.57,170.655,256.74,170.655z"/>
				<path fill="#64A405" d="M215.96,181.194c-21.969,7.45-37.661,27.941-37.661,58.754c0,53.267,46.931,106.962,55.79,116.634
					c-15.233-19.479-48.882-67.914-48.882-116.033C185.207,211.208,197.712,190.743,215.96,181.194z"/>
				<path fill="#64A405" d="M257.233,170.655c25.885,0,46.865,26.646,46.865,73.259c0,60.422-34.55,117.958-43.675,132.098
					c6.871-17.752,22.461-64.016,22.461-118.281C282.885,196.307,271.4,170.655,257.233,170.655z"/>
				<path fill="#64A405" d="M298.019,181.194c21.962,7.45,37.654,27.941,37.654,58.754c0,53.267-46.929,106.962-55.79,116.634
					c15.242-19.479,48.883-67.914,48.883-116.033C328.766,211.208,316.26,190.743,298.019,181.194z"/>
			</g>
		</g>
	</g>
</g>
</svg>
