<?xml version="1.0" encoding="utf-8"?>
<!-- Generator: Adobe Illustrator 16.0.0, SVG Export Plug-In . SVG Version: 6.00 Build 0)  -->
<!DOCTYPE svg PUBLIC "-//W3C//DTD SVG 1.1//EN" "http://www.w3.org/Graphics/SVG/1.1/DTD/svg11.dtd">
<svg version="1.1" id="Layer_1" xmlns="http://www.w3.org/2000/svg" xmlns:xlink="http://www.w3.org/1999/xlink" x="0px" y="0px"
	 width="512px" height="512px" viewBox="0 0 512 512" enable-background="new 0 0 512 512" xml:space="preserve">
<g>
	<g>
		<g>
			<path fill="#CDCCCC" d="M312.5,172.5v79h-211v-79H312.5 M313.5,171.5h-213v81h213V171.5L313.5,171.5z"/>
		</g>
		<rect x="100.267" y="141.401" fill="#F7A7AA" width="213.334" height="34.133"/>
	</g>
	<g>
		<g>
			<path fill="#CDCCCC" d="M410.5,257.5v207h-296v-207H410.5 M411.5,256.5h-298v209h298V256.5L411.5,256.5z"/>
		</g>
		<g>
			<rect x="134.398" y="295" fill="#9D9D9D" width="106.668" height="25.602"/>
			<rect x="266.666" y="295" fill="#F7A7AA" width="106.666" height="25.602"/>
			<rect x="134.398" y="346.201" fill="#9D9D9D" width="106.668" height="25.6"/>
			<rect x="266.666" y="346.201" fill="#F7A7AA" width="106.666" height="25.6"/>
			<rect x="134.398" y="397.401" fill="#9D9D9D" width="106.668" height="25.6"/>
			<rect x="266.666" y="397.401" fill="#F7A7AA" width="106.666" height="25.6"/>
		</g>
		<rect x="113.066" y="226.733" fill="#F7A7AA" width="298.667" height="34.135"/>
	</g>
</g>
<g>
	<polygon fill="#A13638" points="0,406.684 192.001,428.169 192.001,159.367 0,179.793 	"/>
	<g>
		<path fill="#FFFFFF" d="M88.596,245.818h18.936l24.451,95.901h-19.232l-4.271-19.816H84.372l-4.196,19.816H62.891L88.596,245.818z
			 M104.943,305.466l-8.652-39.29l-8.299,39.29H104.943z"/>
	</g>
</g>
</svg>
