<?xml version="1.0" encoding="utf-8"?>
<!-- Generator: Adobe Illustrator 16.0.0, SVG Export Plug-In . SVG Version: 6.00 Build 0)  -->
<!DOCTYPE svg PUBLIC "-//W3C//DTD SVG 1.1//EN" "http://www.w3.org/Graphics/SVG/1.1/DTD/svg11.dtd">
<svg version="1.1" id="Layer_1" xmlns="http://www.w3.org/2000/svg" xmlns:xlink="http://www.w3.org/1999/xlink" x="0px" y="0px"
	 width="512px" height="512px" viewBox="0 0 512 512" enable-background="new 0 0 512 512" xml:space="preserve">
<g>
	<g>
		<g>
			<polygon fill="#451E00" points="336.5,0.5 63.5,0.5 63.5,512.5 448.5,512.5 448.5,113.5 336.5,113.5 			"/>
		</g>
		<g>
			<polygon fill="#FF7F18" points="336.5,0.318 336.5,113.5 448.518,113.5 			"/>
		</g>
	</g>
</g>
<g>
	<g>
		<path fill-rule="evenodd" clip-rule="evenodd" fill="#FF7F18" d="M353.867,249.391c-4.402-4.145-15.285-1.151-23.287-1.823
			c-6.523-0.537-8.402,1.909-8.359,8.355c0.297,39.303,0.297,78.616,0.148,117.917c-0.029,5.794,1.41,8.595,7.742,8.126
			c6.037-0.451,12.154-0.461,18.197-0.02c6.322,0.47,7.832-2.273,7.756-8.106c-0.273-19.935-0.105-39.878-0.105-59.821
			c0.033,0,0.063,0,0.096,0c0-13.872,0.158-27.744-0.063-41.615C355.871,264.444,358.078,253.363,353.867,249.391z"/>
		<path fill-rule="evenodd" clip-rule="evenodd" fill="#FF7F18" d="M339.844,229.534c11.701-0.067,18.586-6.283,18.672-16.874
			c0.096-10.841-7.291-17.546-19.148-17.383c-11.061,0.153-17.373,6.313-17.43,16.999
			C321.889,223.595,328.111,229.592,339.844,229.534z"/>
		<path fill-rule="evenodd" clip-rule="evenodd" fill="#FF7F18" d="M247.064,214.195c-1.17-3.915-1.426-8.576-7.809-8.395
			c-12.361,0.365-24.746,0.106-35.322,0.106c-17.018,59.371-33.547,117.063-50.449,176.068c9.498,0,17.785-0.325,26.035,0.117
			c5.123,0.277,7.176-1.891,8.352-6.457c2.715-10.6,5.98-21.066,8.543-31.695c1.189-4.959,3.053-7.338,8.666-7.137
			c12.115,0.422,24.256,0.402,36.367-0.02c5.506-0.182,7.535,2.12,8.869,7.021c2.867,10.563,6.092,21.038,9.627,31.389
			c0.867,2.543,3.414,6.264,5.387,6.389c10.207,0.643,20.48,0.297,31.895,0.297c-6.607-22.102-12.787-42.727-18.949-63.352
			C267.881,283.752,257.535,248.96,247.064,214.195z M205.633,307.899c5.621-22.955,11.088-45.27,16.557-67.592
			c0.566-0.038,1.127-0.086,1.697-0.134c6.135,22.15,12.27,44.3,18.75,67.726C229.734,307.899,218.309,307.899,205.633,307.899z"/>
	</g>
</g>
</svg>
