<?xml version="1.0" encoding="utf-8"?>
<!-- Generator: Adobe Illustrator 16.0.0, SVG Export Plug-In . SVG Version: 6.00 Build 0)  -->
<!DOCTYPE svg PUBLIC "-//W3C//DTD SVG 1.1//EN" "http://www.w3.org/Graphics/SVG/1.1/DTD/svg11.dtd">
<svg version="1.1" id="Layer_1" xmlns="http://www.w3.org/2000/svg" xmlns:xlink="http://www.w3.org/1999/xlink" x="0px" y="0px"
	 width="512px" height="512px" viewBox="0 0 512 512" enable-background="new 0 0 512 512" xml:space="preserve">
<path fill-rule="evenodd" clip-rule="evenodd" fill="#FF0000" d="M341.191,344.957c18.291-1.818,36.479-1.344,54.471,2.641
	c6.406,1.416,12.576,3.521,15.197,10.936c3.438-7.092,1.521-13.791-6.189-16.818c-8.211-3.215-17.086-6.035-25.787-6.402
	c-17.318-0.734-34.715,0.357-52.072,0.582c-2.678,0.035-5.961,0.305-7.939-1.039c-11.1-7.522-22.813-14.498-32.574-23.553
	c-19.777-18.349-31.209-42.223-40.178-67.262c-1.213-3.385-1.244-7.396-0.984-11.059c1.102-16.291,2.596-32.553,3.762-48.842
	c0.334-4.666,0.053-9.385,0.053-14.078c-0.219,0.01-0.439,0.018-0.658,0.027c-2.744,15.672-5.486,31.344-8.234,47.006
	c-0.621-0.055-1.236-0.117-1.857-0.171c-0.516-1.782-1.268-3.519-1.52-5.337c-1.754-12.762-4.271-25.496-4.771-38.311
	c-0.309-8.193,1.854-16.647,4.002-24.689c1.281-4.791,4.389-5.015,7.375-0.913c2.668,3.663,4.414,8.015,6.586,12.089
	c0.139-0.707,0.355-1.854,0.564-3.008c1.281-6.923-1.406-13.434-6.479-13.873c-10.85-0.957-15.842-1.746-17.861,8.383
	c-1.773,8.875-3.166,18.081-2.854,27.072c0.65,18.931,3.775,37.594,8.746,55.951c1.084,4.029,0.896,8.945-0.318,12.977
	c-9.631,32.104-23.346,62.525-38.797,92.201c-14.557,27.986-29.262,55.952-48.717,80.928c-7.119,9.144-15.949,17.033-24.533,24.923
	c-2.869,2.624-7.393,3.448-11.168,5.095c-0.611-0.617-1.221-1.235-1.834-1.844c2.717-5.588,4.943-11.49,8.256-16.711
	c10.07-15.877,23.158-29.076,37.711-40.871c1.33-1.092,2.623-2.221,3.936-3.331c-14.771,6.224-27.609,15.044-38.785,26.104
	c-7.496,7.433-14.4,15.51-17.391,25.906c-0.914,3.188-1.445,8.58,0.305,10.076c5.189,4.414,11.861,8.506,18.9,5.157
	c7.016-3.341,14.041-7.522,19.646-12.823c18.318-17.373,31.375-38.813,43.967-60.43c3.375-5.804,7.553-8.992,13.848-10.988
	c34.063-10.8,68.904-17.83,104.262-22.414c6.795-0.879,13.502-2.688,20.609,1.164c15.33,8.31,31.742,14.166,48.836,17.811
	c10.465,2.23,21.027,4.102,31.721,1.469c3.537-0.867,6.814-2.418,7.195-6.689c-25.232,3.26-47.105-6.806-69.707-15.877
	C340.744,345.352,340.955,344.985,341.191,344.957z M190.816,369.996c18.863-35.346,37.93-70.344,48.488-109.28
	c8.637,14.677,16.504,29.212,25.512,42.993c9.244,14.132,22.197,24.797,36.184,34.783
	C263.18,345.584,226.508,355.65,190.816,369.996z"/>
</svg>
