<?xml version="1.0" encoding="utf-8"?>
<!-- Generator: Adobe Illustrator 16.0.0, SVG Export Plug-In . SVG Version: 6.00 Build 0)  -->
<!DOCTYPE svg PUBLIC "-//W3C//DTD SVG 1.1//EN" "http://www.w3.org/Graphics/SVG/1.1/DTD/svg11.dtd">
<svg version="1.1" id="Layer_1" xmlns="http://www.w3.org/2000/svg" xmlns:xlink="http://www.w3.org/1999/xlink" x="0px" y="0px"
	 width="512px" height="512px" viewBox="0 0 512 512" enable-background="new 0 0 512 512" xml:space="preserve">
<rect x="119.5" y="239.5" fill="#0071BC" width="272" height="193"/>
<g>
	<polygon fill="#0071BC" points="247.796,162.804 229.283,167.082 252.432,198.681 270.943,194.404 	"/>
	<polygon fill="#0071BC" points="209.797,171.584 191.284,175.862 214.433,207.461 232.945,203.184 	"/>
	<polygon fill="#0071BC" points="285.795,154.025 267.282,158.302 290.431,189.902 308.943,185.624 	"/>
	<polygon fill="#0071BC" points="176.434,216.241 194.946,211.964 171.798,180.364 153.285,184.641 	"/>
	<polygon fill="#0071BC" points="343.28,140.742 366.429,172.342 385.561,167.922 377.457,132.845 	"/>
	<polygon fill="#0071BC" points="133.799,189.144 112.439,194.079 120.543,229.155 156.947,220.743 	"/>
	<polygon fill="#0071BC" points="323.793,145.245 305.281,149.522 328.43,181.122 346.941,176.844 	"/>
</g>
</svg>
