<?xml version="1.0" encoding="utf-8"?>
<!-- Generator: Adobe Illustrator 16.0.0, SVG Export Plug-In . SVG Version: 6.00 Build 0)  -->
<!DOCTYPE svg PUBLIC "-//W3C//DTD SVG 1.1//EN" "http://www.w3.org/Graphics/SVG/1.1/DTD/svg11.dtd">
<svg version="1.1" id="Layer_1" xmlns="http://www.w3.org/2000/svg" xmlns:xlink="http://www.w3.org/1999/xlink" x="0px" y="0px"
	 width="512px" height="512px" viewBox="0 0 512 512" enable-background="new 0 0 512 512" xml:space="preserve">
<g>
	<g>
		<rect x="110.934" y="148.401" fill="#989898" width="85.332" height="34.133"/>
		<rect x="213.333" y="148.401" fill="#989898" width="85.333" height="34.133"/>
		<rect x="315.732" y="148.401" fill="#989898" width="85.334" height="34.133"/>
	</g>
	<g>
		<rect x="110.934" y="216.668" fill="#989898" width="85.332" height="34.133"/>
		<rect x="213.333" y="216.668" fill="#7DBA99" width="85.333" height="34.133"/>
		<rect x="315.732" y="216.668" fill="#7DBA99" width="85.334" height="34.133"/>
	</g>
	<g>
		<rect x="110.934" y="284.934" fill="#989898" width="85.332" height="34.133"/>
		<rect x="213.333" y="284.934" fill="#7DBA99" width="85.333" height="34.133"/>
		<rect x="315.732" y="284.934" fill="#7DBA99" width="85.334" height="34.133"/>
	</g>
	<g>
		<rect x="110.934" y="353.201" fill="#989898" width="85.332" height="34.133"/>
		<rect x="213.333" y="353.201" fill="#7DBA99" width="85.333" height="34.133"/>
		<rect x="315.732" y="353.201" fill="#7DBA99" width="85.334" height="34.133"/>
	</g>
	<g>
		<rect x="110.934" y="421.467" fill="#989898" width="85.332" height="34.133"/>
		<rect x="213.333" y="421.467" fill="#7DBA99" width="85.333" height="34.133"/>
		<rect x="315.732" y="421.467" fill="#7DBA99" width="85.334" height="34.133"/>
	</g>
</g>
<g>
	<polygon fill="#1F7246" points="0,405.184 191.998,426.669 191.998,157.867 0,178.293 	"/>
	<g>
		<path fill="#FFFFFF" d="M66,244.318h20.985l10.17,24.867l10.763-24.867h18.019L105.742,287.7l22.828,52.519h-20.639
			l-12.479-31.251l-14.004,31.251H63.427l23.506-49.142L66,244.318z"/>
	</g>
</g>
</svg>
