<?xml version="1.0" encoding="utf-8"?>
<!-- Generator: Adobe Illustrator 16.0.0, SVG Export Plug-In . SVG Version: 6.00 Build 0)  -->
<!DOCTYPE svg PUBLIC "-//W3C//DTD SVG 1.1//EN" "http://www.w3.org/Graphics/SVG/1.1/DTD/svg11.dtd">
<svg version="1.1" id="Layer_1" xmlns="http://www.w3.org/2000/svg" xmlns:xlink="http://www.w3.org/1999/xlink" x="0px" y="0px"
	 width="512px" height="512px" viewBox="0 0 512 512" enable-background="new 0 0 512 512" xml:space="preserve">
<g>
	<g>
		<g>
			<polygon fill="#485B68" points="337.5,1.5 64.5,1.5 64.5,512.5 449.5,512.5 449.5,114.5 337.5,114.5 			"/>
		</g>
		<g>
			<polygon fill="#768691" points="337.5,0.636 337.5,113.5 449.518,113.5 			"/>
		</g>
	</g>
</g>
<g>
	<path fill-rule="evenodd" clip-rule="evenodd" fill="#FFFFFF" d="M255.656,220.857c0.828,2.077,1.809,4.106,2.438,6.247
		c0.738,2.504,2.49,3.949,4.469,5.429c4.529,3.392,9.172,6.704,13.289,10.56c4.629,4.335,8.887,9.108,13.035,13.919
		c7.219,8.361,13.117,17.599,17.613,27.709c5.205,11.688,8.357,23.916,9.691,36.631c0.162,1.541,0.096,3.448,0.965,4.49
		c1.867,2.236,4.279,4.016,6.287,5.816C322.199,281.793,297.344,246.176,255.656,220.857z"/>
	<path fill-rule="evenodd" clip-rule="evenodd" fill="#FFFFFF" d="M214.951,272.622c-0.201,0.509-0.393,1.024-0.537,1.551
		c-1.08,3.937-2.146,7.878-3.217,11.819c0.17,0.066,0.344,0.14,0.516,0.207c4.328-3.503,8.658-7.01,13.266-10.734
		c-1.699-1.454-3.268-2.78-4.809-4.14C216.867,268.423,216.596,268.487,214.951,272.622z"/>
	<path fill-rule="evenodd" clip-rule="evenodd" fill="#FFFFFF" d="M342.605,329.603c0.184-10.166-1.357-20.104-3.309-30.048
		c-1.992-10.13-5.363-19.787-9.584-29.109c-7.168-15.85-17.598-29.508-30.07-41.478c-6.811-6.526-14.232-12.505-21.879-18.044
		c-10.59-7.672-22.432-13.08-34.836-17.264c-13.648-4.604-27.697-7.053-42.027-7.588c-7.822-0.291-15.676,0.192-23.508,0.442
		c-1.816,0.066-3.617,0.634-6.088,1.097c3.082,0.616,5.508,0.943,7.834,1.592c21.783,6.085,39.529,18.107,52.996,36.314
		c7.631,10.317,13.514,21.521,16.434,34.107c0.385,1.646,0.053,3.455,0.053,5.183c-0.229,0.067-0.461,0.133-0.689,0.198
		c-0.77-0.861-1.572-1.697-2.291-2.6c-8.287-10.336-17.893-19.153-29.348-25.916c-1.65-0.98-2.752-0.825-3.82,0.63
		c-2.166,2.965-4.654,5.75-6.424,8.939c-8.955,16.126-14.832,33.282-16.043,51.788c-0.443,6.747-0.07,13.554-0.07,20.836
		c7.422-4.232,14.363-8.181,21.291-12.15c3.541-2.02,7.027-4.141,10.602-6.107c1.938-1.068,3.178-0.173,3.053,2.047
		c-0.025,0.465-0.18,0.922-0.316,1.371c-2.713,8.637-5.377,17.297-8.178,25.908c-2.205,6.804-4.496,13.592-4.414,20.844
		c0.029,2.818,0.615,5.632,0.9,8.449c0.764,7.378,3.674,14.104,6.863,20.602c3.359,6.836,8.188,12.722,14.27,17.451
		c5.775,4.494,11.863,8.453,18.852,10.881c7.668,2.666,15.439,3.959,23.551,2.364c7.273-1.437,13.961-4.235,19.596-9.023
		c3.881-3.294,7.352-7.087,10.852-10.808c1.494-1.598,2.584-3.576,4.043-5.643c-7.514,0-14.557-0.041-21.602,0.052
		c-1.021,0.015-2.031,0.67-3.191,1.075c1.852,2.137,3.459,3.794,4.834,5.625c2.508,3.332,2.322,5.551-0.859,7.914
		c-6.693,4.967-14.525,5.865-22.373,4.009c-10.006-2.372-14.869-10.454-18.729-19.051c-2.021-4.508-2.313-9.407-2.104-14.454
		c0.291-7.166,2.445-13.797,6.188-19.514c5.85-8.935,13.744-15.893,24.555-18.467c5.779-1.371,11.539-1.062,16.662,2.342
		c4.494,2.983,7.471,7.443,10.416,11.824c6.398,9.51,11.908,19.527,16.764,29.922c2.979,6.395,6.15,12.7,9.555,19.699
		c3.107-10.336,6.387-19.949,8.82-29.776c1.561-6.299,2.174-12.877,2.666-19.366C342.926,341.029,342.506,335.305,342.605,329.603z
		 M333.9,343.563c-0.184,8.121-1.285,16.154-3.402,24.016c-0.229,0.832-1.15,1.745-1.961,2.063
		c-0.408,0.162-1.553-0.814-1.943-1.511c-2.736-4.95-5.275-10.008-8.041-14.936c-4.686-8.365-9.143-16.903-16.182-23.665
		c-4.775-4.59-10.361-7.385-17.143-7.095c-7.922,0.339-14.891,3.389-21.33,7.82c-1.723,1.189-3.414,2.42-5.221,3.694
		c-0.875-4,1.953-6.32,3.475-9.01c3.77-6.637,6.781-13.521,8.885-20.87c1.783-6.217,2.176-12.552,2.375-18.938
		c0.166-5.334,0.627-10.682,0.402-15.996c-0.246-5.577-1.418-11.105-1.658-16.683c-0.102-2.549-1.246-3.838-2.982-5.15
		c-1.426-1.089-2.764-2.298-4.494-3.75c0.229,1.783,0.303,3.161,0.59,4.498c2.086,9.706,2.252,19.563,1.822,29.389
		c-0.486,11.234-1.482,22.494-5.627,33.084c-2.156,5.518-5.223,10.682-7.795,16.045c-4.574,9.531-11.369,17.934-14.379,28.24
		c-0.563,1.933-0.699,4.007-0.928,6.021c-1.082,9.602-0.719,19.064,2.783,28.213c0.041,0.119-0.055,0.295-0.225,1.055
		c-2.424-2.279-4.787-4.191-6.768-6.439c-5.129-5.826-8.73-12.633-11.57-19.793c-3.084-7.775-3.986-15.868-1.344-23.949
		c2.783-8.53,6.127-16.885,8.912-25.414c1.35-4.134,2.096-8.48,2.859-12.774c0.441-2.479,0.479-5.054,0.492-7.58
		c0.012-1.805-0.205-3.632-0.52-5.423c-0.404-2.275-1.984-2.968-3.947-1.774c-5.484,3.345-10.947,6.733-16.418,10.107
		c-4.271,2.636-8.537,5.288-12.832,7.893c-1.914,1.161-3.223,0.719-3.279-1.539c-0.086-3.644,0.074-7.356,0.715-10.937
		c2.896-16.287,8.605-31.569,16.727-45.981c1.07-1.901,2.127-2.226,3.688-0.951c3.164,2.564,6.408,5.061,9.352,7.868
		c10.42,9.908,19.447,21.016,27.758,32.736c0.457,0.642,0.936,1.275,1.404,1.916c2.813-38.403-11.234-68.819-43.107-90.883
		c2.564-1.907,5.285-0.979,7.762-0.449c13.695,2.931,26.828,7.521,39.125,14.269c7.506,4.118,14.865,8.516,21.26,14.277
		c5.439,4.895,10.965,9.75,15.963,15.079c6.951,7.411,12.939,15.658,17.572,24.701c4.137,8.074,8.057,16.316,11.188,24.811
		c2.553,6.925,3.93,14.303,5.602,21.532C333.963,321.987,334.146,332.778,333.9,343.563z"/>
</g>
</svg>
