<?xml version="1.0" encoding="utf-8"?>
<!-- Generator: Adobe Illustrator 16.0.0, SVG Export Plug-In . SVG Version: 6.00 Build 0)  -->
<!DOCTYPE svg PUBLIC "-//W3C//DTD SVG 1.1//EN" "http://www.w3.org/Graphics/SVG/1.1/DTD/svg11.dtd">
<svg version="1.1" id="Layer_1" xmlns="http://www.w3.org/2000/svg" xmlns:xlink="http://www.w3.org/1999/xlink" x="0px" y="0px"
	 width="512px" height="512px" viewBox="0 0 512 512" enable-background="new 0 0 512 512" xml:space="preserve">
<g>
	<g>
		<g>
			<g>
				<linearGradient id="SVGID_1_" gradientUnits="userSpaceOnUse" x1="256.0005" y1="512.5002" x2="256.0005" y2="1.5007">
					<stop  offset="0" style="stop-color:#05003C"/>
					<stop  offset="1" style="stop-color:#080056"/>
				</linearGradient>
				<polygon fill="url(#SVGID_1_)" points="336.5,1.5 63.5,1.5 63.5,512.5 448.5,512.5 448.5,114.5 336.5,114.5 				"/>
			</g>
			<g>
				<linearGradient id="SVGID_2_" gradientUnits="userSpaceOnUse" x1="392.5088" y1="113.5002" x2="392.5088" y2="0.636">
					<stop  offset="0" style="stop-color:#7DBBF9"/>
					<stop  offset="1" style="stop-color:#95CAFE"/>
				</linearGradient>
				<polygon fill="url(#SVGID_2_)" points="336.5,0.636 336.5,113.5 448.518,113.5 				"/>
			</g>
		</g>
	</g>
	<g>
		<g>
			<linearGradient id="SVGID_3_" gradientUnits="userSpaceOnUse" x1="197.9595" y1="383.7971" x2="197.9595" y2="203.1833">
				<stop  offset="0" style="stop-color:#7DBBF9"/>
				<stop  offset="1" style="stop-color:#95CAFE"/>
			</linearGradient>
			<path fill-rule="evenodd" clip-rule="evenodd" fill="url(#SVGID_3_)" d="M257.506,228.776c7.162,9.609,8.371,20.693,7.773,32.156
				c-0.215,4.168-0.303,8.492-1.479,12.443c-7.434,24.866-25.201,38.359-49.617,44.337c-12.129,2.971-24.488,2.132-36.773,2
				c-4.846-0.05-6.199,1.3-6.082,6.347c0.428,17.551,0.151,35.121,0.271,52.682c0.021,3.698-1.375,5.068-5.094,5.008
				c-9.961-0.168-19.934-0.278-29.887,0.04c-4.729,0.151-6.133-1.541-6.113-6.108c0.147-34.278,0.086-68.563,0.132-102.845
				c0.03-23.81,0.121-47.616,0.187-71.426c23.739-0.076,47.496-0.647,71.223,0.379c19.941,0.854,38.746,4.753,52.578,21.006
				l-0.15-0.171C255.271,226.164,256.025,227.735,257.506,228.776z M219.068,277.387l-0.076,0.156
				c0.36-0.863,0.723-1.729,1.088-2.592c0.509-4.507,0.858-9.033,1.555-13.504c2.168-13.737-5.305-25.352-18.732-28.802
				c-9.266-2.375-18.732-2.152-28.181-2.021c-3.005,0.041-3.845,1.749-3.242,4.355c0.923,4.016,0.569,8.079,0.606,12.12
				c0.125,14.524,0.191,29.05,0.276,43.574c-0.94,3.128,1.612,2.233,2.854,2.233c7.523,0.005,15.087,0.617,22.563-0.455
				c7.264-1.035,13.914-3.51,18.258-10.033l-0.15,0.177c1.161-0.773,1.717-1.955,2.168-3.208l-0.123,0.177
				C218.311,278.841,218.685,278.114,219.068,277.387z"/>
			<linearGradient id="SVGID_4_" gradientUnits="userSpaceOnUse" x1="330.6553" y1="386.8176" x2="330.6553" y2="252.8484">
				<stop  offset="0" style="stop-color:#7DBBF9"/>
				<stop  offset="1" style="stop-color:#95CAFE"/>
			</linearGradient>
			<path fill-rule="evenodd" clip-rule="evenodd" fill="url(#SVGID_4_)" d="M372.854,257.869c0.07,7.433,0.105,14.859,0.223,22.281
				c0.05,3.263-0.914,4.319-4.193,2.718c-10.331-5.063-21.248-7.341-32.803-6.71c-3.622,0.197-6.947,1.156-10.24,2.451
				c-7.089,2.778-6.774,8.805-6.467,14.822c0.377,0.445,0.758,0.885,1.131,1.324l-0.102-0.146
				c2.572,7.234,9.285,8.855,15.391,10.937c12.441,4.239,24.939,8.261,35.459,16.577l-0.171-0.157
				c0.394,0.394,0.786,0.787,1.182,1.182l-0.167-0.171c0.389,0.398,0.777,0.793,1.174,1.188l-0.152-0.168
				c0.817,1.586,1.676,3.143,3.168,4.225l-0.112-0.152c0.369,0.728,0.747,1.461,1.122,2.193l-0.131-0.162
				c0.389,0.354,0.777,0.712,1.161,1.07c6.856,13.691,2.116,29.313-9.685,40.695c-8.453,8.159-19.188,11.564-30.562,13.408
				c-17.944,2.904-35.562,1.712-52.954-3.588c-3.779-1.152-5.514-2.986-5.289-7.168c0.373-7.417,0.211-14.863,0.277-22.291
				c1.5,0.698,3.047,1.334,4.5,2.123c12.191,6.612,25.195,10.174,39.059,9.002c7.119-0.605,15.165-0.697,18.031-9.725
				c0.014-1.172-0.224-2.414,0.09-3.512c1.617-5.805-1.324-9.326-5.906-11.994c-4.979-2.904-10.478-4.51-15.928-6.289
				c-10.57-3.45-21.315-6.774-29.414-15c-9.916-10.063-13.145-21.885-8.539-35.516c1.329-2.672,2.658-5.345,3.992-8.012
				l-0.131,0.161c2.971-2.243,4.801-5.558,7.801-7.851c11.928-9.155,25.83-11.762,40.295-12.641
				C347.224,252.166,359.997,255.394,372.854,257.869z"/>
		</g>
	</g>
</g>
</svg>
