<?xml version="1.0" encoding="utf-8"?>
<!-- Generator: Adobe Illustrator 16.0.0, SVG Export Plug-In . SVG Version: 6.00 Build 0)  -->
<!DOCTYPE svg PUBLIC "-//W3C//DTD SVG 1.1//EN" "http://www.w3.org/Graphics/SVG/1.1/DTD/svg11.dtd">
<svg version="1.1" id="Layer_1" xmlns="http://www.w3.org/2000/svg" xmlns:xlink="http://www.w3.org/1999/xlink" x="0px" y="0px"
	 width="512px" height="512px" viewBox="0 0 512 512" enable-background="new 0 0 512 512" xml:space="preserve">
<g>
	<g>
		<g>
			<polygon fill="#007D00" points="336.5,1.5 63.5,1.5 63.5,512.5 448.5,512.5 448.5,114.5 336.5,114.5 			"/>
		</g>
		<g>
			<polygon fill="#ACE69B" points="336.5,0.636 336.5,113.5 448.518,113.5 			"/>
		</g>
	</g>
</g>
<g>
	<g>
		<path fill="#FFFFFF" d="M448.5,450.5H248.477c-28.717,0-53.899-26.275-53.899-56.971c0-30.701,25.05-57.014,53.603-57.014
			c19.103,0,37.82,12.693,47.695,32.19l22.209-11.072c-14.068-27.781-41.507-45.397-69.904-45.397
			c-42.549,0-78.497,38.569-78.497,83.301c0,44.727,36.084,83.963,78.794,83.963H448.5V450.5z"/>
	</g>
	<g>
		<path fill="#ABD5AB" d="M123.397,391.975c0-67.936,54.103-123.453,123.103-123.453v-24.898c-82,0-147.996,66.691-147.996,148.352
			c0,49.496,24.483,93.525,61.885,120.525h59.205C163.707,499.5,123.397,450.766,123.397,391.975z"/>
	</g>
	<g>
		<path fill="#D5EAD5" d="M248.477,487.5c-48.039,0-88.615-42.419-88.615-92.742c0-50.308,40.46-92.716,88.351-92.716
			c16.506,0,32.235,7.888,44.101,14.774l12.51-21.562c-14.567-8.46-34.161-18.244-56.61-18.244
			c-61.388,0-113.244,54.008-113.244,117.809c0,63.816,51.976,117.681,113.509,117.681H448.5v-25H248.477z"/>
	</g>
</g>
</svg>
