<?xml version="1.0" encoding="utf-8"?>
<!-- Generator: Adobe Illustrator 16.0.0, SVG Export Plug-In . SVG Version: 6.00 Build 0)  -->
<!DOCTYPE svg PUBLIC "-//W3C//DTD SVG 1.1//EN" "http://www.w3.org/Graphics/SVG/1.1/DTD/svg11.dtd">
<svg version="1.1" id="Layer_1" xmlns="http://www.w3.org/2000/svg" xmlns:xlink="http://www.w3.org/1999/xlink" x="0px" y="0px"
	 width="512px" height="512px" viewBox="0 0 512 512" enable-background="new 0 0 512 512" xml:space="preserve">
<rect x="124.654" y="369.666" fill="#F5B99C" width="17.069" height="17.064"/>
<rect x="124.654" y="403.797" fill="#F5B99C" width="17.069" height="17.068"/>
<rect x="124.654" y="437.93" fill="#F5B99C" width="17.069" height="17.07"/>
<g>
	<rect x="105.5" y="334.5" fill="#E9E8E9" width="299" height="33"/>
	<rect x="123.733" y="383.694" fill="#F5B99C" width="264.533" height="17.064"/>
	<rect x="123.733" y="417.824" fill="#F5B99C" width="264.533" height="17.068"/>
	<rect x="123.733" y="451.957" fill="#F5B99C" width="264.533" height="17.07"/>
	<g>
		<path fill="#939393" d="M251.26,249.385V145.621c-59.858,0-104.408,45.953-104.408,102.611c0,56.66,45.025,103.16,101.693,103.16
			c56.666,0,101.685-42.16,101.685-102.008H251.26z"/>
		<g>
			<path fill="#F5B99C" d="M262.557,134.973v102.609h102.592C365.148,180.93,319.229,134.973,262.557,134.973z"/>
		</g>
	</g>
</g>
<g>
	<polygon fill="#E35B27" points="-0.5,405.186 192.5,426.666 192.5,157.869 -0.5,178.291 	"/>
	<g>
		<path fill="#FFFFFF" d="M70.05,244.319h24.642c7.479,0,13.28,0.707,17.397,2.107c4.115,1.408,7.577,4.58,10.377,9.523
			c2.8,4.943,4.201,11.059,4.201,18.369c0,7.023-1.128,12.832-3.383,17.426c-2.258,4.59-5.383,7.896-9.375,9.938
			c-3.991,2.033-10.125,3.053-18.404,3.053H88.86v35.482H70.05V244.319z M88.86,259.842v28.457h5.832
			c5.142,0,8.455-1.34,9.938-4.014c1.483-2.676,2.224-6.152,2.224-10.426c0-3.617-0.575-6.535-1.725-8.766
			c-1.148-2.236-2.487-3.662-4.012-4.295c-1.523-0.633-3.667-0.957-6.426-0.957H88.86z"/>
	</g>
</g>
</svg>
