<?xml version="1.0" encoding="utf-8"?>
<!-- Generator: Adobe Illustrator 16.0.0, SVG Export Plug-In . SVG Version: 6.00 Build 0)  -->
<!DOCTYPE svg PUBLIC "-//W3C//DTD SVG 1.1//EN" "http://www.w3.org/Graphics/SVG/1.1/DTD/svg11.dtd">
<svg version="1.1" id="Layer_1" xmlns="http://www.w3.org/2000/svg" xmlns:xlink="http://www.w3.org/1999/xlink" x="0px" y="0px"
	 width="512px" height="512px" viewBox="0 0 512 512" enable-background="new 0 0 512 512" xml:space="preserve">
<path fill="#0071BC" d="M334.119,279.598c-3.111-27.931-29.021-50.318-41.191-64.361c-12.168-14.043-19.896-33.649-19.896-33.649
	l-1.08-3.087H261.5v162.191c-10-5.478-20.554-8.524-33.265-8.022c-29.518,1.155-52.323,20.954-51.356,44.224
	c0.965,23.27,25.846,41.194,55.363,40.038c29.523-1.159,52.263-20.954,51.294-44.228c-0.033-0.824-0.011-122.958-0.011-122.958
	c5.268,1.339,26.143,7.532,30.768,35.47c5.254,31.754-13.139,63.422-13.139,63.422S342.078,350.98,334.119,279.598z"/>
</svg>
