<?xml version="1.0" encoding="utf-8"?>
<!-- Generator: Adobe Illustrator 16.0.0, SVG Export Plug-In . SVG Version: 6.00 Build 0)  -->
<!DOCTYPE svg PUBLIC "-//W3C//DTD SVG 1.1//EN" "http://www.w3.org/Graphics/SVG/1.1/DTD/svg11.dtd">
<svg version="1.1" id="Layer_1" xmlns="http://www.w3.org/2000/svg" xmlns:xlink="http://www.w3.org/1999/xlink" x="0px" y="0px"
	 width="512px" height="512px" viewBox="0 0 512 512" enable-background="new 0 0 512 512" xml:space="preserve">
<g>
	<line fill="none" stroke="#CCCCCC" stroke-width="10" stroke-miterlimit="10" x1="105.5" y1="149.5" x2="404.5" y2="149.5"/>
	<line fill="none" stroke="#CCCCCC" stroke-width="10" stroke-miterlimit="10" x1="105.5" y1="182.5" x2="404.5" y2="182.5"/>
	<line fill="none" stroke="#CCCCCC" stroke-width="10" stroke-miterlimit="10" x1="105.5" y1="216.5" x2="404.5" y2="216.5"/>
	<line fill="none" stroke="#CCCCCC" stroke-width="10" stroke-miterlimit="10" x1="105.5" y1="251.5" x2="404.5" y2="251.5"/>
	<line fill="none" stroke="#CCCCCC" stroke-width="10" stroke-miterlimit="10" x1="105.5" y1="284.5" x2="404.5" y2="284.5"/>
	<line fill="none" stroke="#CCCCCC" stroke-width="10" stroke-miterlimit="10" x1="105.5" y1="320.5" x2="404.5" y2="320.5"/>
	<line fill="none" stroke="#CCCCCC" stroke-width="10" stroke-miterlimit="10" x1="105.5" y1="353.5" x2="404.5" y2="353.5"/>
	<line fill="none" stroke="#CCCCCC" stroke-width="10" stroke-miterlimit="10" x1="105.5" y1="388.5" x2="404.5" y2="388.5"/>
	<line fill="none" stroke="#CCCCCC" stroke-width="10" stroke-miterlimit="10" x1="105.5" y1="421.5" x2="404.5" y2="421.5"/>
	<line fill="none" stroke="#CCCCCC" stroke-width="10" stroke-miterlimit="10" x1="105.5" y1="455.5" x2="404.5" y2="455.5"/>
</g>
<g>
	<polygon fill="#295598" points="0,405.184 192,426.669 192,157.867 0,178.293 	"/>
	<g>
		<path fill="#FFFFFF" d="M49.226,244.076h19.24l8.988,66.316l11.208-66.316h17.241l10.563,66.699l10.472-66.699h15.838
			l-18.372,96.382h-16.866l-11.412-66.665l-11.663,66.665H67.783L49.226,244.076z"/>
	</g>
</g>
</svg>
