<?xml version="1.0" encoding="utf-8"?>
<!-- Generator: Adobe Illustrator 16.0.0, SVG Export Plug-In . SVG Version: 6.00 Build 0)  -->
<!DOCTYPE svg PUBLIC "-//W3C//DTD SVG 1.1//EN" "http://www.w3.org/Graphics/SVG/1.1/DTD/svg11.dtd">
<svg version="1.1" id="Layer_1" xmlns="http://www.w3.org/2000/svg" xmlns:xlink="http://www.w3.org/1999/xlink" x="0px" y="0px"
	 width="512px" height="512px" viewBox="0 0 512 512" enable-background="new 0 0 512 512" xml:space="preserve">
<g>
	<g>
		
			<linearGradient id="SVGID_1_" gradientUnits="userSpaceOnUse" x1="22.479" y1="227.1428" x2="297.9072" y2="227.1428" gradientTransform="matrix(1 0 0 -1 91.0098 599.4009)">
			<stop  offset="0" style="stop-color:#4EC429"/>
			<stop  offset="1" style="stop-color:#C3FBAD"/>
		</linearGradient>
		
			<polygon fill="url(#SVGID_1_)" stroke="#009445" stroke-width="0.8647" stroke-linecap="round" stroke-linejoin="round" stroke-miterlimit="10" points="
			388.917,368.189 287.048,309.697 113.489,366.706 214.584,434.82 		"/>
		
			<linearGradient id="SVGID_2_" gradientUnits="userSpaceOnUse" x1="33.0591" y1="219.9084" x2="138.6963" y2="219.9084" gradientTransform="matrix(1 0 0 -1 91.0098 599.4009)">
			<stop  offset="0" style="stop-color:#E6E6E6"/>
			<stop  offset="1" style="stop-color:#FFFFFF"/>
		</linearGradient>
		<path fill="url(#SVGID_2_)" d="M216.639,385.893l-92.57-59.166v41.836l94.63,63.695
			C228.666,428.127,238.33,401.784,216.639,385.893z"/>
		
			<linearGradient id="SVGID_3_" gradientUnits="userSpaceOnUse" x1="121.5142" y1="221.0803" x2="309.5605" y2="221.0803" gradientTransform="matrix(1 0 0 -1 91.0098 599.4009)">
			<stop  offset="0" style="stop-color:#4EC429"/>
			<stop  offset="1" style="stop-color:#C3FBAD"/>
		</linearGradient>
		<path fill="url(#SVGID_3_)" d="M214.584,434.82c9.963-4.131,19.627-30.473-2.06-46.365l174.332-66.633
			c21.691,15.896,13.961,41.851,2.062,46.367L214.584,434.82z"/>
		
			<linearGradient id="SVGID_4_" gradientUnits="userSpaceOnUse" x1="20.4194" y1="273.5081" x2="295.8457" y2="273.5081" gradientTransform="matrix(1 0 0 -1 91.0098 599.4009)">
			<stop  offset="0" style="stop-color:#4EC429"/>
			<stop  offset="1" style="stop-color:#C3FBAD"/>
		</linearGradient>
		<polygon fill="url(#SVGID_4_)" points="386.855,321.822 284.988,263.332 111.429,320.344 212.524,388.454 		"/>
	</g>
	<g>
		
			<linearGradient id="SVGID_5_" gradientUnits="userSpaceOnUse" x1="22.479" y1="277.7268" x2="297.9072" y2="277.7268" gradientTransform="matrix(1 0 0 -1 91.0098 599.4009)">
			<stop  offset="0" style="stop-color:#4B3BDE"/>
			<stop  offset="1" style="stop-color:#BDB8F1"/>
		</linearGradient>
		
			<polygon fill="url(#SVGID_5_)" stroke="#2B388F" stroke-width="0.8647" stroke-linecap="round" stroke-linejoin="round" stroke-miterlimit="10" points="
			388.917,317.605 287.048,259.113 113.489,316.122 214.584,384.236 		"/>
		
			<linearGradient id="SVGID_6_" gradientUnits="userSpaceOnUse" x1="33.0591" y1="270.4924" x2="138.6963" y2="270.4924" gradientTransform="matrix(1 0 0 -1 91.0098 599.4009)">
			<stop  offset="0" style="stop-color:#E6E6E6"/>
			<stop  offset="1" style="stop-color:#FFFFFF"/>
		</linearGradient>
		<path fill="url(#SVGID_6_)" d="M216.639,335.297l-92.57-59.154v41.838l94.63,63.693
			C228.666,377.543,238.33,351.191,216.639,335.297z"/>
		
			<linearGradient id="SVGID_7_" gradientUnits="userSpaceOnUse" x1="121.5142" y1="271.6692" x2="309.5605" y2="271.6692" gradientTransform="matrix(1 0 0 -1 91.0098 599.4009)">
			<stop  offset="0" style="stop-color:#4B3BDE"/>
			<stop  offset="1" style="stop-color:#BDB8F1"/>
		</linearGradient>
		<path fill="url(#SVGID_7_)" d="M214.584,384.236c9.963-4.131,19.627-30.473-2.06-46.365l174.332-66.643
			c21.691,15.904,13.961,41.859,2.062,46.377L214.584,384.236z"/>
		
			<linearGradient id="SVGID_8_" gradientUnits="userSpaceOnUse" x1="20.4194" y1="324.092" x2="295.8457" y2="324.092" gradientTransform="matrix(1 0 0 -1 91.0098 599.4009)">
			<stop  offset="0" style="stop-color:#4B3BDE"/>
			<stop  offset="1" style="stop-color:#BDB8F1"/>
		</linearGradient>
		<polygon fill="url(#SVGID_8_)" points="386.855,271.229 284.988,212.747 111.429,269.76 212.524,337.87 		"/>
	</g>
	<g>
		
			<linearGradient id="SVGID_9_" gradientUnits="userSpaceOnUse" x1="22.479" y1="328.3108" x2="297.9072" y2="328.3108" gradientTransform="matrix(1 0 0 -1 91.0098 599.4009)">
			<stop  offset="0" style="stop-color:#AF3EA0"/>
			<stop  offset="1" style="stop-color:#D6A0D0"/>
		</linearGradient>
		
			<polygon fill="url(#SVGID_9_)" stroke="#90278E" stroke-width="0.8647" stroke-linecap="round" stroke-linejoin="round" stroke-miterlimit="10" points="
			388.917,267.021 287.048,208.529 113.489,265.539 214.584,333.652 		"/>
		
			<linearGradient id="SVGID_10_" gradientUnits="userSpaceOnUse" x1="33.0591" y1="321.0764" x2="138.6963" y2="321.0764" gradientTransform="matrix(1 0 0 -1 91.0098 599.4009)">
			<stop  offset="0" style="stop-color:#E6E6E6"/>
			<stop  offset="1" style="stop-color:#FFFFFF"/>
		</linearGradient>
		<path fill="url(#SVGID_10_)" d="M216.639,284.713l-92.57-59.154v41.835l94.63,63.695
			C228.666,326.959,238.33,300.607,216.639,284.713z"/>
		
			<linearGradient id="SVGID_11_" gradientUnits="userSpaceOnUse" x1="121.5142" y1="322.2522" x2="309.5605" y2="322.2522" gradientTransform="matrix(1 0 0 -1 91.0098 599.4009)">
			<stop  offset="0" style="stop-color:#AF3EA0"/>
			<stop  offset="1" style="stop-color:#D6A0D0"/>
		</linearGradient>
		<path fill="url(#SVGID_11_)" d="M214.584,333.652c9.963-4.131,19.627-30.481-2.06-46.377l174.332-66.63
			c21.691,15.894,13.961,41.848,2.062,46.376L214.584,333.652z"/>
		
			<linearGradient id="SVGID_12_" gradientUnits="userSpaceOnUse" x1="20.4194" y1="374.6819" x2="295.8457" y2="374.6819" gradientTransform="matrix(1 0 0 -1 91.0098 599.4009)">
			<stop  offset="0" style="stop-color:#AF3EA0"/>
			<stop  offset="1" style="stop-color:#D6A0D0"/>
		</linearGradient>
		<polygon fill="url(#SVGID_12_)" points="386.855,220.645 284.988,162.164 111.429,219.164 212.524,287.275 		"/>
	</g>
	
		<linearGradient id="SVGID_13_" gradientUnits="userSpaceOnUse" x1="97.6792" y1="303.2717" x2="222.502" y2="303.2717" gradientTransform="matrix(1 0 0 -1 91.0098 599.4009)">
		<stop  offset="0" style="stop-color:#C8A747"/>
		<stop  offset="1" style="stop-color:#E3CB91"/>
	</linearGradient>
	<polygon fill="url(#SVGID_13_)" points="188.689,194.193 295.486,256.594 295.486,405 313.512,399.443 313.512,249.67 
		209.493,187.257 	"/>
	
		<linearGradient id="SVGID_14_" gradientUnits="userSpaceOnUse" x1="205.1934" y1="243.3958" x2="233.8105" y2="243.3958" gradientTransform="matrix(1 0 0 -1 91.0098 599.4009)">
		<stop  offset="0" style="stop-color:#C8A747"/>
		<stop  offset="1" style="stop-color:#E3CB91"/>
	</linearGradient>
	<polygon fill="url(#SVGID_14_)" points="296.203,334.172 306.796,384.777 324.82,379.232 314.229,327.234 	"/>
	
		<polygon fill="none" stroke="#58595B" stroke-width="7" stroke-linecap="round" stroke-linejoin="round" stroke-miterlimit="10" points="
		319.055,327.323 289.938,335.65 289.938,307.918 319.055,299.592 	"/>
	
		<line fill="none" stroke="#58595B" stroke-width="7" stroke-linecap="round" stroke-linejoin="round" stroke-miterlimit="10" x1="304.664" y1="296.355" x2="304.664" y2="319.834"/>
</g>
</svg>
