<?xml version="1.0" encoding="utf-8"?>
<!-- Generator: Adobe Illustrator 16.0.0, SVG Export Plug-In . SVG Version: 6.00 Build 0)  -->
<!DOCTYPE svg PUBLIC "-//W3C//DTD SVG 1.1//EN" "http://www.w3.org/Graphics/SVG/1.1/DTD/svg11.dtd">
<svg version="1.1" id="Layer_1" xmlns="http://www.w3.org/2000/svg" xmlns:xlink="http://www.w3.org/1999/xlink" x="0px" y="0px"
	 width="512px" height="512px" viewBox="0 0 512 512" enable-background="new 0 0 512 512" xml:space="preserve">
<g>
	<g>
		<g>
			<path fill="#1B98D2" d="M256.001,420.401c-72.458,0-131.4-58.942-131.4-131.4c0-72.459,58.942-131.4,131.4-131.4
				S387.399,216.541,387.399,289C387.399,361.458,328.459,420.401,256.001,420.401z M256.001,165.813
				c-67.929,0-123.188,55.263-123.188,123.188c0,67.928,55.259,123.188,123.188,123.188S379.188,356.928,379.188,289
				C379.188,221.075,323.93,165.813,256.001,165.813z"/>
		</g>
		<polygon fill="#1B98D2" points="192.449,194.42 172.732,218.077 182.31,223.698 195.267,205.683 199.211,210.182 181.75,231.025 
			162.603,231.597 151.899,243.982 155.84,251.31 168.229,241.729 176.678,250.744 180.619,246.795 175.557,238.914 
			181.182,237.787 191.327,252.431 201.466,245.11 196.389,232.153 211.601,235.533 211.601,247.934 198.654,252.431 
			194.714,257.505 207.098,260.879 185.691,265.943 156.404,257.505 144.01,261.45 136.692,290.172 144.572,307.071 
			169.367,309.878 171.052,331.854 177.252,349.874 182.31,363.391 198.654,365.081 220.614,303.131 223.992,296.926 
			202.035,268.767 207.656,267.639 227.376,292.981 243.701,282.278 236.381,271.022 230.195,271.583 228.494,258.626 
			255.531,283.977 266.799,307.071 279.752,282.278 298.347,308.193 305.108,317.206 310.736,314.956 294.965,290.737 
			311.293,302.008 323.697,295.803 322.56,277.211 309.053,264.267 329.328,269.329 342.277,257.505 341.718,246.232 
			336.083,238.353 327.644,227.09 341.16,231.025 345.657,225.956 332.7,216.387 332.7,200.611 326.506,183.149 292.151,173.577 
			268.494,172.45 242.584,185.961 222.309,196.102 208.221,197.804 211.601,187.657 		"/>
		<polygon fill="#1B98D2" points="335.523,306.502 318.063,332.413 331.572,354.383 348.477,339.171 364.248,355.511 
			380.019,327.913 367.628,299.18 353.543,311.01 		"/>
		<path fill="#1B98D2" d="M356.376,259.189"/>
	</g>
</g>
</svg>
