<?xml version="1.0" encoding="utf-8"?>
<!-- Generator: Adobe Illustrator 16.0.0, SVG Export Plug-In . SVG Version: 6.00 Build 0)  -->
<!DOCTYPE svg PUBLIC "-//W3C//DTD SVG 1.1//EN" "http://www.w3.org/Graphics/SVG/1.1/DTD/svg11.dtd">
<svg version="1.1" id="Layer_1" xmlns="http://www.w3.org/2000/svg" xmlns:xlink="http://www.w3.org/1999/xlink" x="0px" y="0px"
	 width="512px" height="512px" viewBox="0 0 512 512" enable-background="new 0 0 512 512" xml:space="preserve">
<g>
	<g>
		<g>
			<polygon fill="#0E5C5C" points="337.5,0.5 64.5,0.5 64.5,511.5 449.5,511.5 449.5,113.5 337.5,113.5 			"/>
		</g>
		<g>
			<polygon fill="#E9E8E9" points="337.5,0.318 337.5,113.5 449.518,113.5 			"/>
		</g>
	</g>
</g>
<g>
	<g>
		<path fill-rule="evenodd" clip-rule="evenodd" fill="#FFFFFF" d="M270.438,296.591c0.688,0.116,2.033-0.775,2.313-1.5
			c1.987-5.191,3.779-10.467,5.912-16.517c-10.245,4.642-19.504,8.842-28.762,13.033c-0.159,0.384-0.33,0.759-0.488,1.142
			C256.412,294.058,263.408,295.416,270.438,296.591z"/>
		<path fill-rule="evenodd" clip-rule="evenodd" fill="#FFFFFF" d="M359.309,285.949c-5.779-24.733-22.154-38.117-46.384-42.492
			c-8.717-1.574-17.646-2.199-26.508-2.608c-17.938-0.824-35.938-1.675-53.483,3.575c-16.221,4.858-27.896,14.858-31.154,31.767
			c-2.129,11.042-3.021,22.676-2.163,33.867c1.829,23.883,16.246,38.908,39.904,43.434c30.237,5.783,57.175-0.117,78.93-23.25
			c-12.163-14.409-28-20.409-46.908-20.768c-10.358-0.199-20.788-2.225-30.976-4.392c-6.717-1.441-12.304-5.691-15.684-11.966
			c-0.679-1.25-0.533-3.95,0.371-4.9c19.021-20.117,41.246-30.566,69.792-24.408c25.108,5.408,40.188,18.608,43.454,41.916
			c1.496,10.634,1.313,21.667,0.483,32.417c-1.521,19.759-10.346,30.092-29.588,34.842c-31.313,7.733-62.888,8.325-94.712,2.759
			c-18.009-3.15-28.913-13.417-33.863-30.492c-8.166-28.175-7.291-56.542-0.82-84.842c2.833-12.408,10.65-20.767,22.513-25.816
			c14.2-6.05,28.883-10.441,44.191-11.184c22.884-1.125,45.833-1.024,68.763-1.408c5.629-0.092,11.258-0.008,17.416-0.008
			c-0.566-9.184-1.087-17.809-1.625-26.584c-1.199,0-2.07-0.083-2.916,0.009c-30.529,3.541-61.059,7.092-91.584,10.658
			c-16.271,1.899-32.438,4.108-47.791,10.358c-16.421,6.666-27.726,18.283-32.229,35.25c-3.167,11.925-5.188,24.35-5.996,36.658
			c-1.741,26.45,2.917,51.95,13.529,76.417c8.084,18.608,22.042,28.8,41.709,32.533c24.837,4.7,49.829,5.024,74.899,3.633
			c16.55-0.916,32.8-3.517,48.309-9.941c18.092-7.491,28.854-20.491,32.088-39.934C364.904,329.183,364.358,307.516,359.309,285.949
			z M268.57,328.275c8.15,1.808,16.038,3.558,23.934,5.308c-0.079,0.525-0.166,1.051-0.25,1.584
			c-9.912,4.45-19.816,8.899-31.108,13.967C263.892,341.416,266.07,335.282,268.57,328.275z"/>
	</g>
</g>
</svg>
