<?xml version="1.0" encoding="utf-8"?>
<!-- Generator: Adobe Illustrator 16.0.0, SVG Export Plug-In . SVG Version: 6.00 Build 0)  -->
<!DOCTYPE svg PUBLIC "-//W3C//DTD SVG 1.1//EN" "http://www.w3.org/Graphics/SVG/1.1/DTD/svg11.dtd">
<svg version="1.1" id="Layer_1" xmlns="http://www.w3.org/2000/svg" xmlns:xlink="http://www.w3.org/1999/xlink" x="0px" y="0px"
	 width="512px" height="512px" viewBox="0 0 512 512" enable-background="new 0 0 512 512" xml:space="preserve">
<g>
	<g>
		<g>
			<polygon fill="#41202C" points="336.5,0.5 63.5,0.5 63.5,512.5 448.5,512.5 448.5,113.5 336.5,113.5 			"/>
		</g>
		<g>
			<polygon fill="#FF408C" points="336.5,0.318 336.5,113.5 448.518,113.5 			"/>
		</g>
	</g>
</g>
<g>
	<g>
		<path fill-rule="evenodd" clip-rule="evenodd" fill="#FF408C" d="M162.645,382.426c11.623,0,21.73,0,33.314,0
			c0-61.049,0-120.935,0-182.003c-11.465,0-22.242,0-33.314,0C162.645,261.658,162.645,321.584,162.645,382.426z"/>
		<path fill-rule="evenodd" clip-rule="evenodd" fill="#FF408C" d="M348.105,281.746c-4.541-34.973-28.225-56.065-63.502-58.824
			c-12.727-0.995-25.633,0.345-38.451,0.424c-10.719,0.059-15.328,4.384-14.875,15.89c0.838,21.564,0.236,43.169,0.236,64.763
			c0.246,0,0.504,0,0.75,0c0,13.416-0.09,26.835,0.01,40.262c0.324,42.549,0.344,42.549,43.287,40.647
			c38.844-1.725,63.887-19.288,70.762-52.99C349.631,315.703,350.244,298.168,348.105,281.746z M312.807,324.284
			c-3.713,25.692-17.859,35.622-44.893,30.677c0-33.366,0-66.91,0-101.932c5.125-0.562,8.021-1.34,10.836-1.124
			C306.75,254.093,319.133,280.485,312.807,324.284z"/>
	</g>
</g>
</svg>
