<?xml version="1.0" encoding="utf-8"?>
<!-- Generator: Adobe Illustrator 16.0.0, SVG Export Plug-In . SVG Version: 6.00 Build 0)  -->
<!DOCTYPE svg PUBLIC "-//W3C//DTD SVG 1.1//EN" "http://www.w3.org/Graphics/SVG/1.1/DTD/svg11.dtd">
<svg version="1.1" id="Layer_1" xmlns="http://www.w3.org/2000/svg" xmlns:xlink="http://www.w3.org/1999/xlink" x="0px" y="0px"
	 width="512px" height="512px" viewBox="0 0 512 512" enable-background="new 0 0 512 512" xml:space="preserve">
<g>
	<path fill-opacity="0.75" d="M179.292,325.844c-15.795,13.954-29.965,20.924-42.534,20.924c-7.386,0-13.52-2.43-18.419-7.28
		c-4.89-4.839-7.342-10.913-7.342-18.214c0-9.879,4.253-18.77,12.748-26.666c8.495-7.898,27.007-18.392,55.547-31.509v-13.024
		c0-9.789-0.529-15.952-1.595-18.492c-1.064-2.537-3.067-4.76-6.025-6.65c-2.957-1.893-6.283-2.84-9.975-2.84
		c-6.005,0-10.944,1.346-14.819,4.014c-2.401,1.664-3.605,3.605-3.605,5.824c0,1.934,1.295,4.344,3.883,7.2
		c3.505,3.975,5.258,7.807,5.258,11.502c0,4.522-1.684,8.376-5.047,11.563c-3.376,3.187-7.789,4.779-13.236,4.779
		c-5.815,0-10.684-1.753-14.606-5.269c-3.935-3.506-5.897-7.616-5.897-12.328c0-6.641,2.64-12.995,7.899-19.04
		c5.266-6.055,12.604-10.692,22.026-13.918c9.419-3.237,19.209-4.851,29.366-4.851c12.278,0,22.005,2.608,29.157,7.826
		c7.161,5.218,11.798,10.873,13.92,16.97c1.294,3.872,1.94,12.785,1.94,26.734v50.278c0,5.916,0.23,9.631,0.699,11.152
		c0.458,1.524,1.155,2.659,2.071,3.396c0.925,0.737,1.991,1.104,3.186,1.104c2.399,0,4.851-1.701,7.349-5.128l4.153,3.326
		c-4.621,6.842-9.4,11.801-14.339,14.896c-4.941,3.088-10.546,4.643-16.83,4.643c-7.391,0-13.155-1.735-17.317-5.2
		C182.756,338.103,180.216,332.865,179.292,325.844z M179.292,315.739v-43.359c-11.174,6.555-19.49,13.574-24.938,21.052
		c-3.603,4.99-5.395,10.02-5.395,15.096c0,4.253,1.522,7.997,4.57,11.224c2.299,2.491,5.539,3.744,9.689,3.744
		C167.838,323.494,173.195,320.905,179.292,315.739z"/>
	<path fill="#1B98D2" d="M317.336,352.67h-66.36l-7.886,18.294c-2.589,6.097-3.881,11.123-3.881,15.099
		c0,5.256,2.12,9.138,6.373,11.629c2.488,1.483,8.632,2.59,18.421,3.325v5.128h-62.477v-5.128c6.742-1.015,12.29-3.803,16.631-8.374
		c4.333-4.571,9.688-14.021,16.06-28.33l67.188-149.887h2.629l67.744,154.04c6.463,14.597,11.77,23.778,15.922,27.562
		c3.146,2.869,7.58,4.532,13.303,4.989v5.128h-90.875v-5.128h3.744c7.299,0,12.418-1.015,15.375-3.046
		c2.031-1.474,3.049-3.607,3.049-6.373c0-1.664-0.279-3.367-0.828-5.12c-0.189-0.837-1.572-4.302-4.162-10.395L317.336,352.67z
		 M312.627,342.426l-27.982-64.688l-28.818,64.688H312.627z"/>
</g>
</svg>
