<?xml version="1.0" encoding="utf-8"?>
<!-- Generator: Adobe Illustrator 16.0.0, SVG Export Plug-In . SVG Version: 6.00 Build 0)  -->
<!DOCTYPE svg PUBLIC "-//W3C//DTD SVG 1.1//EN" "http://www.w3.org/Graphics/SVG/1.1/DTD/svg11.dtd">
<svg version="1.1" id="Layer_1" xmlns="http://www.w3.org/2000/svg" xmlns:xlink="http://www.w3.org/1999/xlink" x="0px" y="0px"
	 width="512px" height="512px" viewBox="0 0 512 512" enable-background="new 0 0 512 512" xml:space="preserve">
<g>
	<path fill="#0071BC" d="M156.109,291.179c19.592,0,22.352-10.762,22.352-20.42c0-7.728-1.104-15.454-2.207-23.18
		c-1.105-7.727-2.208-15.177-2.208-22.904c0-25.388,16.558-36.149,40.014-36.149h5.794v15.177h-4.968
		c-16.28,0-21.799,8.831-21.799,23.732c0,6.347,0.827,12.97,1.932,19.592c1.103,6.899,1.931,13.522,1.931,20.972
		c0.277,17.661-7.451,26.491-19.869,29.804v0.551c12.418,3.036,20.146,12.418,19.869,30.079c0,7.45-0.828,14.35-1.931,20.972
		c-1.104,6.899-1.932,13.246-1.932,19.869c0,15.453,6.347,24.008,21.799,24.008h4.968v15.177h-5.794
		c-22.904,0-40.014-9.934-40.014-37.806c0-7.45,1.103-15.177,2.208-22.627c1.103-7.451,2.207-14.901,2.207-22.353
		c0-8.555-2.76-20.421-22.352-20.421V291.179z"/>
	<path fill="#0071BC" d="M355.891,305.252c-19.592,0-22.352,11.866-22.352,20.421c0,7.451,1.102,14.901,2.207,22.353
		c1.104,7.45,2.208,15.177,2.208,22.627c0,27.872-17.386,37.806-40.014,37.806h-5.794v-15.177h4.691
		c15.451-0.276,22.075-8.555,22.075-24.008c0-6.623-1.103-12.97-1.932-19.869c-1.103-6.622-2.208-13.521-2.208-20.972
		c0-17.661,7.727-27.043,19.867-30.079v-0.551c-12.141-3.313-19.867-12.143-19.867-29.804c0-7.45,1.105-14.073,2.208-20.972
		c0.829-6.623,1.932-13.246,1.932-19.592c0-14.901-5.794-23.456-21.8-23.732h-4.967v-15.177h5.518
		c23.457,0,40.29,10.762,40.29,36.149c0,7.727-1.104,15.177-2.208,22.904c-1.105,7.727-2.207,15.453-2.207,23.18
		c0,9.658,2.76,20.42,22.352,20.42V305.252z"/>
</g>
</svg>
