<?xml version="1.0" encoding="utf-8"?>
<!-- Generator: Adobe Illustrator 16.0.0, SVG Export Plug-In . SVG Version: 6.00 Build 0)  -->
<!DOCTYPE svg PUBLIC "-//W3C//DTD SVG 1.1//EN" "http://www.w3.org/Graphics/SVG/1.1/DTD/svg11.dtd">
<svg version="1.1" id="Layer_1" xmlns="http://www.w3.org/2000/svg" xmlns:xlink="http://www.w3.org/1999/xlink" x="0px" y="0px"
	 width="512px" height="512px" viewBox="0 0 512 512" enable-background="new 0 0 512 512" xml:space="preserve">
<linearGradient id="SVGID_1_" gradientUnits="userSpaceOnUse" x1="81.0396" y1="215.3142" x2="430.9604" y2="215.3142">
	<stop  offset="0" style="stop-color:#EDCC69"/>
	<stop  offset="1" style="stop-color:#FEE387"/>
</linearGradient>
<polygon fill="url(#SVGID_1_)" points="430.961,429.612 81.04,430.628 81.04,0 391.344,0 391.344,225.672 430.961,265.292 "/>
<g>
	<linearGradient id="SVGID_2_" gradientUnits="userSpaceOnUse" x1="81.2485" y1="255.8083" x2="194.2485" y2="255.8083">
		<stop  offset="0" style="stop-color:#F9E2A0"/>
		<stop  offset="1" style="stop-color:#FFEAA5"/>
	</linearGradient>
	<path fill="url(#SVGID_2_)" d="M81.249,430.382V0.971l113,80.321v284.233l-8.679,12.548c-0.055,0.083-0.321,0.18-0.321,0.279
		v132.292L81.249,430.382z"/>
</g>
<g>
	<g>
		<path fill="#389AE8" d="M413.648,368.705c6.934,5.663,10.85,13.502,11.78,23.533c0.916,10.061-1.789,19.58-8.146,28.577
			c-6.355,9.018-15.99,16.513-28.914,22.513c-12.934,6-25.631,8.932-38.087,8.823c-12.467-0.115-21.88-2.874-28.222-8.313
			c-6.355-5.411-9.99-12.568-10.907-21.478c-0.927-8.874,1.722-18.064,7.962-27.528c6.23-9.441,15.064-17.195,26.489-23.195
			c11.429-6.006,23.899-9.384,37.397-10.203C396.514,360.615,406.729,363.043,413.648,368.705z M411.227,116.766l0.352,250.725
			c6.916,4.628,11.541,12.229,13.851,22.857V202.662c12.919,0.676,25.278,5.188,37.042,13.502
			c11.78,8.313,21.179,18.567,28.225,30.826c7.045,12.229,10.566,24.467,10.566,36.696c0,10.851-1.857,21.133-5.537,30.825
			c-3.704,9.693-10.286,24.575-19.738,44.666h5.536C501.84,327.08,512,299.861,512,277.457c0-21.924-8.313-42.834-24.941-62.672
			c-13.623-15.025-24.291-26.717-32.025-35.145c-7.735-8.43-13.979-17.274-18.701-26.516c-4.73-9.219-8.367-21.814-10.903-37.738
			L411.227,116.766z"/>
	</g>
</g>
</svg>
