<?xml version="1.0" encoding="utf-8"?>
<!-- Generator: Adobe Illustrator 16.0.0, SVG Export Plug-In . SVG Version: 6.00 Build 0)  -->
<!DOCTYPE svg PUBLIC "-//W3C//DTD SVG 1.1//EN" "http://www.w3.org/Graphics/SVG/1.1/DTD/svg11.dtd">
<svg version="1.1" id="Layer_1" xmlns="http://www.w3.org/2000/svg" xmlns:xlink="http://www.w3.org/1999/xlink" x="0px" y="0px"
	 width="512px" height="512px" viewBox="0 0 512 512" enable-background="new 0 0 512 512" xml:space="preserve">
<linearGradient id="SVGID_1_" gradientUnits="userSpaceOnUse" x1="81.0391" y1="215.3142" x2="430.9609" y2="215.3142">
	<stop  offset="0" style="stop-color:#EDCC69"/>
	<stop  offset="1" style="stop-color:#FEE387"/>
</linearGradient>
<polygon fill="url(#SVGID_1_)" points="430.961,429.612 81.039,430.628 81.039,0 391.344,0 391.344,225.672 430.961,265.292 "/>
<g>
	<linearGradient id="SVGID_2_" gradientUnits="userSpaceOnUse" x1="81.248" y1="255.8083" x2="194.248" y2="255.8083">
		<stop  offset="0" style="stop-color:#F9E2A0"/>
		<stop  offset="1" style="stop-color:#FFEAA5"/>
	</linearGradient>
	<path fill="url(#SVGID_2_)" d="M81.248,430.382V0.971l113,80.321v284.233l-8.679,12.548c-0.055,0.083-0.321,0.18-0.321,0.279
		v132.292L81.248,430.382z"/>
</g>
<path fill="#389AE8" d="M417.246,298.744h37.322c-4.693-9.801-10.578-18.661-17.656-26.576c-7.08-7.918-15.038-14.682-23.876-20.297
	c-8.839-5.611-18.368-9.926-28.589-12.943c-10.221-3.014-20.734-4.521-31.541-4.521c-10.305,0-20.254,1.342-29.846,4.02
	c-9.592,2.684-18.557,6.473-26.891,11.373c-8.338,4.9-15.94,10.789-22.809,17.656c-6.87,6.869-12.754,14.473-17.655,22.807
	c-4.901,8.338-8.692,17.303-11.372,26.893c-2.684,9.596-4.021,19.54-4.021,29.844c0,10.307,1.338,20.254,4.021,29.848
	c2.68,9.592,6.471,18.557,11.372,26.893s10.785,15.939,17.655,22.807c6.868,6.869,14.471,12.756,22.809,17.656
	c8.334,4.9,17.278,8.691,26.828,11.373c9.551,2.681,19.52,4.02,29.908,4.02c12.566,0,24.672-2.029,36.316-6.094
	c11.645-4.063,22.242-9.738,31.793-17.029c9.551-7.287,17.823-15.979,24.819-26.074c6.993-10.094,12.168-21.215,15.519-33.363
	l15.457,4.271c-3.771,13.908-9.657,26.641-17.656,38.203c-8,11.561-17.467,21.51-28.398,29.844
	c-10.934,8.338-23.041,14.809-36.318,19.416c-13.278,4.607-27.123,6.912-41.531,6.912c-11.813,0-23.207-1.527-34.182-4.589
	c-10.975-3.056-21.235-7.37-30.787-12.94c-9.549-5.572-18.242-12.273-26.074-20.108c-7.834-7.831-14.535-16.522-20.105-26.075
	c-5.573-9.551-9.887-19.791-12.943-30.725c-3.061-10.932-4.588-22.346-4.588-34.244c0-11.811,1.527-23.203,4.588-34.18
	c3.057-10.973,7.37-21.236,12.943-30.787c5.57-9.551,12.271-18.24,20.105-26.074c7.832-7.834,16.525-14.535,26.074-20.107
	c9.552-5.57,19.793-9.883,30.725-12.943c10.934-3.057,22.347-4.586,34.244-4.586c11.729,0,23.123,1.551,34.182,4.65
	c11.058,3.102,21.466,7.52,31.227,13.256c9.758,5.74,18.64,12.715,26.641,20.924c8,8.213,14.848,17.467,20.545,27.771V250.49h16.086
	v64.34h-64.34V298.744z M352.906,282.66v68.988l45.867,45.992l-11.311,11.311l-50.643-50.516V282.66H352.906z"/>
</svg>
