<?xml version="1.0" encoding="utf-8"?>
<!-- Generator: Adobe Illustrator 16.0.0, SVG Export Plug-In . SVG Version: 6.00 Build 0)  -->
<!DOCTYPE svg PUBLIC "-//W3C//DTD SVG 1.1//EN" "http://www.w3.org/Graphics/SVG/1.1/DTD/svg11.dtd">
<svg version="1.1" id="Layer_1" xmlns="http://www.w3.org/2000/svg" xmlns:xlink="http://www.w3.org/1999/xlink" x="0px" y="0px"
	 width="512px" height="512px" viewBox="0 0 512 512" enable-background="new 0 0 512 512" xml:space="preserve">
<linearGradient id="SVGID_1_" gradientUnits="userSpaceOnUse" x1="61.0396" y1="216.3142" x2="410.9604" y2="216.3142">
	<stop  offset="0" style="stop-color:#EDCC69"/>
	<stop  offset="1" style="stop-color:#FEE387"/>
</linearGradient>
<polygon fill="url(#SVGID_1_)" points="410.961,430.612 61.04,431.628 61.04,1 371.344,1 371.344,226.672 410.961,266.292 "/>
<g>
	<g>
		<g>
			<g>
				<linearGradient id="SVGID_2_" gradientUnits="userSpaceOnUse" x1="296" y1="482.4998" x2="296" y2="70.5002">
					<stop  offset="0" style="stop-color:#F5F6F7"/>
					<stop  offset="1" style="stop-color:#FBFBFB"/>
				</linearGradient>
				<path fill="url(#SVGID_2_)" d="M140.5,482.5v-412h220v91.451c0,0.276,0.395,0.549,0.671,0.549H451.5v320H140.5z"/>
				<g>
					<path fill="#B3B3B3" d="M360.5,71.5v90.451c0,0.552,0.118,0.549,0.671,0.549H450.5v320h-310v-411H360.5 M361.5,70.5h-222v413
						h312v-322h-90V70.5L361.5,70.5z"/>
				</g>
			</g>
			<g>
				<linearGradient id="SVGID_3_" gradientUnits="userSpaceOnUse" x1="406.1494" y1="161.4998" x2="406.1494" y2="71.6633">
					<stop  offset="0" style="stop-color:#E1E1E1"/>
					<stop  offset="1" style="stop-color:#F2F2F2"/>
				</linearGradient>
				<polygon fill="url(#SVGID_3_)" points="361.5,161.5 361.5,71.663 450.799,161.5 				"/>
				<g>
					<path fill="#B3B3B3" d="M362.5,72.877l87.099,87.623H362.5v-88 M361.5,70.45v91.05H452L361.5,70.45L361.5,70.45z"/>
				</g>
			</g>
		</g>
	</g>
	<g>
		<line fill="none" stroke="#CCCCCC" stroke-width="10" stroke-miterlimit="10" x1="173.5" y1="190.5" x2="416.5" y2="190.5"/>
		<line fill="none" stroke="#CCCCCC" stroke-width="10" stroke-miterlimit="10" x1="173.5" y1="217.5" x2="416.5" y2="217.5"/>
		<line fill="none" stroke="#CCCCCC" stroke-width="10" stroke-miterlimit="10" x1="173.5" y1="245.5" x2="416.5" y2="245.5"/>
		<line fill="none" stroke="#CCCCCC" stroke-width="10" stroke-miterlimit="10" x1="173.5" y1="273.5" x2="416.5" y2="273.5"/>
		<line fill="none" stroke="#CCCCCC" stroke-width="10" stroke-miterlimit="10" x1="173.5" y1="300.5" x2="416.5" y2="300.5"/>
		<line fill="none" stroke="#CCCCCC" stroke-width="10" stroke-miterlimit="10" x1="173.5" y1="329.5" x2="416.5" y2="329.5"/>
		<line fill="none" stroke="#CCCCCC" stroke-width="10" stroke-miterlimit="10" x1="173.5" y1="356.5" x2="416.5" y2="356.5"/>
		<line fill="none" stroke="#CCCCCC" stroke-width="10" stroke-miterlimit="10" x1="173.5" y1="384.5" x2="416.5" y2="384.5"/>
		<line fill="none" stroke="#CCCCCC" stroke-width="10" stroke-miterlimit="10" x1="173.5" y1="411.5" x2="416.5" y2="411.5"/>
		<line fill="none" stroke="#CCCCCC" stroke-width="10" stroke-miterlimit="10" x1="173.5" y1="438.5" x2="416.5" y2="438.5"/>
	</g>
</g>
<g>
	<linearGradient id="SVGID_4_" gradientUnits="userSpaceOnUse" x1="61.2485" y1="256.8083" x2="174.2485" y2="256.8083">
		<stop  offset="0" style="stop-color:#F9E2A0"/>
		<stop  offset="1" style="stop-color:#FFEAA5"/>
	</linearGradient>
	<path fill="url(#SVGID_4_)" d="M61.249,431.382V1.971l113,80.321v284.233l-8.679,12.548c-0.055,0.083-0.321,0.18-0.321,0.279
		v132.292L61.249,431.382z"/>
</g>
</svg>
