<?xml version="1.0" encoding="utf-8"?>
<!-- Generator: Adobe Illustrator 16.0.0, SVG Export Plug-In . SVG Version: 6.00 Build 0)  -->
<!DOCTYPE svg PUBLIC "-//W3C//DTD SVG 1.1//EN" "http://www.w3.org/Graphics/SVG/1.1/DTD/svg11.dtd">
<svg version="1.1" id="Layer_1" xmlns="http://www.w3.org/2000/svg" xmlns:xlink="http://www.w3.org/1999/xlink" x="0px" y="0px"
	 width="512px" height="512px" viewBox="0 0 512 512" enable-background="new 0 0 512 512" xml:space="preserve">
<g>
	<g>
		<linearGradient id="SVGID_1_" gradientUnits="userSpaceOnUse" x1="99.0474" y1="252.9539" x2="260.9558" y2="91.0454">
			<stop  offset="0" style="stop-color:#D9E2E2"/>
			<stop  offset="0.5" style="stop-color:#FFFFFF"/>
			<stop  offset="1" style="stop-color:#D9E2E2"/>
		</linearGradient>
		<path fill="url(#SVGID_1_)" stroke="#B3B3B3" stroke-miterlimit="10" d="M285.565,127.427
			c-5.802-13.729-14.001-25.855-24.61-36.381c-10.524-10.608-22.65-18.808-36.38-24.609c-14.191-5.944-29.035-8.924-44.521-8.924
			c-15.556,0-30.436,2.979-44.627,8.924c-13.657,5.802-25.785,14.001-36.381,24.609c-10.536,10.525-18.699,22.652-24.49,36.381
			c-6.027,14.191-9.042,29.023-9.042,44.52c0,15.557,3.015,30.437,9.042,44.615c5.791,13.658,13.954,25.796,24.49,36.392
			c10.596,10.525,22.724,18.689,36.381,24.492c14.191,6.027,29.071,9.042,44.627,9.042c15.485,0,30.329-3.015,44.521-9.042
			c13.729-5.803,25.855-13.967,36.38-24.492c10.609-10.596,18.809-22.733,24.61-36.392c5.944-14.179,8.924-29.059,8.924-44.615
			C294.489,156.45,291.51,141.618,285.565,127.427z M210.384,202.383c-8.39,8.389-18.499,12.577-30.329,12.577
			c-11.9,0-22.046-4.188-30.436-12.577c-8.389-8.39-12.59-18.547-12.59-30.437c0-11.829,4.201-21.939,12.59-30.328
			c8.39-8.39,18.535-12.59,30.436-12.59c11.83,0,21.939,4.2,30.329,12.59c8.39,8.389,12.59,18.499,12.59,30.328
			C222.974,183.836,218.773,193.993,210.384,202.383z"/>
		<linearGradient id="SVGID_2_" gradientUnits="userSpaceOnUse" x1="156.146" y1="195.8572" x2="203.8583" y2="148.1448">
			<stop  offset="0" style="stop-color:#D9E2E2"/>
			<stop  offset="0.5" style="stop-color:#FFFFFF"/>
			<stop  offset="1" style="stop-color:#D9E2E2"/>
		</linearGradient>
		<path fill="url(#SVGID_2_)" stroke="#B3B3B3" stroke-miterlimit="10" d="M180.055,138.189c-9.303,0-17.275,3.311-23.909,9.956
			c-6.563,6.561-9.849,14.488-9.849,23.802c0,9.303,3.286,17.276,9.849,23.91c6.634,6.562,14.606,9.837,23.909,9.837
			c9.314,0,17.242-3.275,23.803-9.837c6.633-6.634,9.956-14.607,9.956-23.91c0-9.313-3.323-17.241-9.956-23.802
			C197.297,141.499,189.369,138.189,180.055,138.189z M192.988,184.988c-3.583,3.583-7.891,5.374-12.934,5.374
			c-5.113,0-9.456-1.791-13.04-5.374c-3.584-3.584-5.376-7.938-5.376-13.041c0-5.043,1.792-9.35,5.376-12.934
			c3.584-3.583,7.927-5.374,13.04-5.374c5.043,0,9.351,1.791,12.934,5.374c3.584,3.584,5.375,7.891,5.375,12.934
			C198.363,177.049,196.572,181.404,192.988,184.988z"/>
	</g>
</g>
</svg>
