<?xml version="1.0" encoding="utf-8"?>
<!-- Generator: Adobe Illustrator 16.0.0, SVG Export Plug-In . SVG Version: 6.00 Build 0)  -->
<!DOCTYPE svg PUBLIC "-//W3C//DTD SVG 1.1//EN" "http://www.w3.org/Graphics/SVG/1.1/DTD/svg11.dtd">
<svg version="1.1" id="Layer_1" xmlns="http://www.w3.org/2000/svg" xmlns:xlink="http://www.w3.org/1999/xlink" x="0px" y="0px"
	 width="512px" height="512px" viewBox="0 0 512 512" enable-background="new 0 0 512 512" xml:space="preserve">
<g>
	<path fill="#191919" d="M415.5,498.5c0,8.283-6.716,15-15,15h-290c-8.284,0-15-6.717-15-15v-482c0-8.284,6.716-15,15-15h290
		c8.284,0,15,6.716,15,15V498.5z"/>
	<linearGradient id="SVGID_1_" gradientUnits="userSpaceOnUse" x1="256.001" y1="460.9509" x2="256.0009" y2="53.05">
		<stop  offset="0" style="stop-color:#1D6B9B"/>
		<stop  offset="0.4677" style="stop-color:#7FC9D6"/>
		<stop  offset="0.7688" style="stop-color:#8593D0"/>
		<stop  offset="1" style="stop-color:#4C6CB9"/>
	</linearGradient>
	<rect x="113.935" y="53.05" fill="url(#SVGID_1_)" width="284.131" height="407.901"/>
	<path fill="#3F3F3F" d="M289,25.5c0,1.934-1.566,3.5-3.5,3.5h-61c-1.934,0-3.5-1.566-3.5-3.5l0,0c0-1.934,1.566-3.5,3.5-3.5h61
		C287.434,22,289,23.567,289,25.5L289,25.5z"/>
	<linearGradient id="SVGID_2_" gradientUnits="userSpaceOnUse" x1="257.0547" y1="501.5847" x2="257.0547" y2="466.3298">
		<stop  offset="0" style="stop-color:#454545"/>
		<stop  offset="1" style="stop-color:#000000"/>
	</linearGradient>
	<circle fill="url(#SVGID_2_)" cx="257.055" cy="483.957" r="17.627"/>
</g>
<g>
	<path fill="#FFFFFF" d="M295.165,240.019c-3.833,2.705-6.536,5.368-8.11,7.991c-2.22,3.713-3.329,7.77-3.329,12.167
		c0,3.874,1.109,7.578,3.329,11.108c2.219,3.531,5.79,6.528,10.715,8.99c-5.004,10.896-9.747,18.241-14.226,22.034
		c-3.108,2.622-6.639,3.935-10.594,3.935c-2.058,0-4.631-0.596-7.718-1.786c-3.088-1.189-5.478-1.786-7.174-1.786
		c-2.058,0-4.652,0.597-7.778,1.786c-3.128,1.189-5.58,1.786-7.355,1.786c-4.319,0-8.354-1.877-12.107-5.63
		c-5.288-5.326-9.374-11.865-12.258-19.612c-2.885-7.749-4.328-14.812-4.328-21.188c0-7.345,1.856-13.64,5.569-18.887
		c4.843-6.86,12.167-10.291,21.975-10.291c2.865,0,5.77,0.636,8.717,1.907c2.945,1.271,5.346,1.907,7.204,1.907
		c1.049,0,1.957-0.101,2.724-0.303c0.767-0.202,2.473-0.847,5.115-1.938c2.643-1.09,5.54-1.634,8.687-1.634
		c4.561,0,8.404,0.726,11.532,2.179C288.881,234.208,292.019,236.63,295.165,240.019z M277.007,207.755
		c0.039,1.535,0.06,2.745,0.06,3.632c0,3.794-0.938,7.144-2.814,10.049c-1.877,2.905-5.016,5.589-9.413,8.051
		c-1.453,0.847-3.977,1.392-7.567,1.634c-0.082-0.887-0.121-1.553-0.121-1.998c0-2.421,0.856-5.336,2.573-8.747
		c1.714-3.41,4.125-6.244,7.233-8.505C269.177,210.258,272.526,208.885,277.007,207.755z"/>
</g>
</svg>
