<?xml version="1.0" encoding="utf-8"?>
<!-- Generator: Adobe Illustrator 16.0.0, SVG Export Plug-In . SVG Version: 6.00 Build 0)  -->
<!DOCTYPE svg PUBLIC "-//W3C//DTD SVG 1.1//EN" "http://www.w3.org/Graphics/SVG/1.1/DTD/svg11.dtd">
<svg version="1.1" id="Layer_1" xmlns="http://www.w3.org/2000/svg" xmlns:xlink="http://www.w3.org/1999/xlink" x="0px" y="0px"
	 width="512px" height="512px" viewBox="0 0 512 512" enable-background="new 0 0 512 512" xml:space="preserve">
<g>
	<polygon opacity="0.5" fill="#999999" points="1,109 106.083,17 137,427 74,497 	"/>
	<polygon opacity="0.5" fill="#999999" points="440,497 388,427 407.918,17 513,109 	"/>
	<polygon fill="#CCCCCC" fill-opacity="0.5" points="408,17 106,17 137,427 388,427 	"/>
	<g>
		<g opacity="0.5">
			<polygon fill="#7D7D7D" points="74,497.5 440,497.5 388,427.5 137,427.5 			"/>
		</g>
		<polygon fill="#E6E6E6" fill-opacity="0.5" points="513,109 439.864,497 74.146,497 1,109 		"/>
	</g>
	<g>
		<path fill-rule="evenodd" clip-rule="evenodd" fill="#0071BC" d="M142.99,352.097c1.73,0.162,3.424,0.458,5.12,0.46
			c31.749,0.029,63.497,0.023,95.246,0.028c3.187,0,3.178,0.009,3.178,3.29c-0.002,17.498-0.038,34.997,0.05,52.495
			c0.01,2.104-0.632,2.591-2.64,2.585c-21.485-0.064-42.971-0.039-64.457-0.031c-3.07,0.002-4.65-2.16-5.988-4.377
			c-3.359-5.564-6.572-11.218-9.8-16.859c-4.417-7.723-8.8-15.464-13.187-23.203c-2.533-4.47-5.048-8.949-7.553-13.434
			C142.868,352.889,142.966,352.623,142.99,352.097z"/>
		<path fill-rule="evenodd" clip-rule="evenodd" fill="#0071BC" d="M292.533,428.03c-1.918-3.253-3.836-6.505-5.756-9.756
			c-5.389-9.136-10.779-18.27-16.166-27.406c-1.43-2.425-2.969-4.799-4.184-7.328c-0.383-0.797-0.184-2.195,0.279-3.022
			c2.644-4.729,5.466-9.359,8.192-14.045c4.038-6.94,8.034-13.905,12.072-20.847c1.802-3.098,3.661-6.162,5.495-9.24
			c0.186,0.042,0.371,0.084,0.557,0.127c0,3.262,0.005,6.524-0.002,9.787c-0.011,6.252-0.014,6.27,6.25,6.271
			c21.18,0.007,42.361,0.033,63.541-0.043c2.555-0.009,5.107-0.605,8.066-0.979c-0.896,1.58-1.693,2.996-2.498,4.407
			c-4.826,8.48-9.672,16.95-14.475,25.444c-2.814,4.974-5.513,10.012-8.354,14.969c-2.334,4.074-4.715,8.127-7.245,12.079
			c-1.132,1.764-2.966,2.515-5.168,2.506c-12.251-0.052-24.501-0.037-36.753-0.03c-2.709,0.001-3.357,0.662-3.363,3.367
			c-0.01,4.53-0.003,9.061-0.003,13.592C292.858,427.93,292.696,427.98,292.533,428.03z"/>
		<path fill-rule="evenodd" clip-rule="evenodd" fill="#0071BC" d="M348.602,207.74c-2.325,4.092-4.314,7.643-6.348,11.169
			c-3.538,6.142-7.111,12.265-10.654,18.405c-2.926,5.071-5.794,10.177-8.795,15.203c-0.354,0.591-1.387,1.101-2.105,1.103
			c-16.906,0.044-33.813,0.013-50.719-0.01c-0.055,0-0.109-0.068-0.555-0.364c2.297-1.4,4.422-2.73,6.583-4.002
			c1.803-1.061,3.745-1.918,5.421-3.146c0.574-0.422,1.02-1.965,0.699-2.529c-4.48-7.914-9.132-15.73-13.688-23.603
			c-4.086-7.062-8.092-14.17-12.155-21.246c-2.519-4.387-5.345-8.623-7.523-13.171c-1.395-2.91-3.923-4.678-6.012-7.413
			c1.027-0.063,1.716-0.144,2.404-0.144c20.82-0.012,41.64-0.05,62.46,0.015c3.176,0.01,5.9,1.301,7.551,4.251
			c5.408,9.66,10.818,19.318,16.215,28.984c0.559,1,0.821,2.285,1.617,2.993c0.604,0.538,2.058,0.799,2.754,0.443
			c3.473-1.78,6.814-3.814,10.217-5.733C346.63,208.573,347.353,208.307,348.602,207.74z"/>
		<path fill-rule="evenodd" clip-rule="evenodd" fill="#0071BC" d="M306.716,285.672c2.798-1.633,5.531-3.252,8.284-4.835
			c8.975-5.157,17.951-10.312,26.938-15.448c4.271-2.44,8.561-4.849,12.853-7.252c2.387-1.336,2.546-1.22,3.97,1.195
			c6.673,11.326,13.459,22.589,20.039,33.969c2.701,4.67,5.723,9.354,7.293,14.435c2.596,8.403,0.49,16.341-4.908,23.337
			c-2.838,3.679-6.148,6.813-10.465,8.654c-1.488,0.635-3.172,1.11-4.773,1.131c-8.34,0.103-16.684,0.01-25.025,0.052
			c-1.32,0.007-2.139-0.347-2.83-1.548c-3.352-5.83-6.803-11.602-10.219-17.396c-6.385-10.831-12.773-21.66-19.146-32.5
			C308.067,288.35,307.508,287.176,306.716,285.672z"/>
		<path fill-rule="evenodd" clip-rule="evenodd" fill="#0071BC" d="M167.065,237.891c4.874-8.423,9.604-16.541,14.277-24.691
			c4.203-7.333,8.326-14.711,12.521-22.048c2.127-3.721,5.53-5.906,9.41-7.393c4.746-1.82,9.709-2.532,14.761-2.21
			c5.385,0.342,10.726,1.388,15.183,4.512c2.327,1.63,4.162,4.172,5.742,6.612c3.376,5.216,6.429,10.641,9.644,15.962
			c0.793,1.311,1.047,2.434,0.163,3.928c-4.416,7.456-8.721,14.978-13.036,22.493c-3.776,6.578-7.508,13.182-11.273,19.767
			c-2.15,3.759-4.348,7.489-6.48,11.257c-0.623,1.102-1.238,1.065-2.259,0.469c-12.156-7.108-24.342-14.168-36.513-21.254
			c-3.493-2.034-6.963-4.104-10.433-6.176C168.226,238.792,167.733,238.376,167.065,237.891z"/>
		<path fill-rule="evenodd" clip-rule="evenodd" fill="#0071BC" d="M208.522,315.823c-4.093-2.249-8.238-4.407-12.253-6.789
			c-1.688-1.002-2.759-1.205-3.844,0.723c-3.008,5.351-6.138,10.632-9.197,15.954c-2.842,4.943-5.64,9.913-8.511,14.84
			c-0.231,0.396-0.877,0.778-1.334,0.781c-9.149,0.06-18.313,0.345-27.438-0.107c-2.5-0.123-5.175-2.15-7.275-3.897
			c-5.816-4.837-9.541-11.213-11.167-18.517c-1.704-7.653-0.288-14.942,4.061-21.663c3.646-5.634,6.985-11.47,10.42-17.239
			c0.641-1.076,0.829-2.024-0.664-2.865c-4.386-2.473-8.674-5.12-13.493-7.992c0.973-0.127,1.469-0.248,1.965-0.248
			c16.601-0.006,33.202,0.01,49.804-0.013c1.529-0.002,2.427,0.473,3.25,1.909c4.816,8.409,9.814,16.715,14.699,25.085
			c3.42,5.86,6.757,11.771,10.137,17.655c0.386,0.672,0.805,1.326,1.208,1.989C208.769,315.561,208.645,315.692,208.522,315.823z"/>
	</g>
</g>
</svg>
