<?xml version="1.0" encoding="utf-8"?>
<!-- Generator: Adobe Illustrator 16.0.0, SVG Export Plug-In . SVG Version: 6.00 Build 0)  -->
<!DOCTYPE svg PUBLIC "-//W3C//DTD SVG 1.1//EN" "http://www.w3.org/Graphics/SVG/1.1/DTD/svg11.dtd">
<svg version="1.1" id="Layer_1" xmlns="http://www.w3.org/2000/svg" xmlns:xlink="http://www.w3.org/1999/xlink" x="0px" y="0px"
	 width="512px" height="512px" viewBox="0 0 512 512" enable-background="new 0 0 512 512" xml:space="preserve">
<g>
	<g enable-background="new    ">
		<g>
			<path fill="#3F3F3F" d="M353.161,221.059c-12.247,1.092-23.176,2.064-34.827,3.098c3.798,1.234,6.632,2.153,9.491,3.08
				c-34.802,12.585-69.284,25.054-104.668,37.85c-1.99-5.394-4.13-10.387-5.432-15.37c-0.276-1.104,1.821-2.337,3.896-3.236
				c4.07-1.753,8.712-3.37,13.523-4.911c1.408-0.447,4.246-0.703,6.367-0.597c7.388,0.37,14.185-0.625,16.773-2.673
				c2.626-2.083,0.771-4.401-4.896-6.107c-0.045-0.014-0.09-0.026-0.135-0.04c-5.898-1.75-13.45-2.099-19.855-0.917
				c-5.652,1.045-7.619,3.261-5.741,5.648c0.535,0.674-0.111,1.612-1.358,2.125c-4.082,1.68-8.627,3.242-13.124,4.807
				c-5.696,1.984-7.47,4.451-6.422,7.256c1.401,3.759,2.257,7.543,4.698,11.272c2.892,4.419,0.843,7.997-9.574,10.622
				c-0.137,0.033-0.262,0.079-0.352,0.127c-2.046,1.07-4.554,1.172-8.688,0.605c-10.989-1.507-22.775-0.633-29.219,1.921
				c-6.689,2.654-7.383,6.758-1.652,9.813c1.893,1.012,4.109,1.885,6.562,2.612c8.726,2.589,20.423,3.313,31.058,1.715
				c12.303-1.847,16.514-6.716,9.279-11.315c-1.951-1.238-1.506-1.915,0.911-2.769c10.575-3.732,21.187-7.458,31.281-11.332
				c4.837-1.856,10.798-2.472,18.4-2.348c13.417,0.216,26.815,0.294,40.235,0.493c10.779,0.159,19.392-0.894,25.784-3.537
				c4.022-1.664,8.644-3.167,13.099-4.777c1.545,0.401,2.736,0.65,3.666,0.926c0.207,0.062,0.4,0.125,0.584,0.191
				c0.383,0.14,0.756,0.265,1.118,0.373c2.616,0.776,4.751,0.685,7.208-0.307c4.47-1.794,9.352-3.484,14.24-5.16
				c2.128-0.734,1.953-1.293-0.488-2.017c-0.058-0.018-0.119-0.036-0.18-0.053c-3.068-0.883-6.117-1.774-9.147-2.674
				c-3.146-0.933-6.269-1.874-9.366-2.821c-0.049-0.015-0.096-0.029-0.144-0.043c-2.468-0.732-4.265-0.739-6.269,0.025
				c-3.703,1.42-7.624,2.777-11.451,4.161c-6.014,2.175-6.005,2.178,0.664,4.526c0.229,0.081,0.248,0.227,0.443,0.416
				c-5.805,2.1-11.482,4.295-17.715,6.314c-1.775,0.57-5.079,0.872-7.814,0.86c-14.846-0.065-29.728-0.266-45.781-0.431
				c26.803-9.692,52.797-19.092,79.149-28.622c3.255,0.965,6.193,1.837,10.054,2.983
				C349.329,228.808,351.149,225.134,353.161,221.059"/>
		</g>
	</g>
</g>
</svg>
