<?xml version="1.0" encoding="utf-8"?>
<!-- Generator: Adobe Illustrator 16.0.0, SVG Export Plug-In . SVG Version: 6.00 Build 0)  -->
<!DOCTYPE svg PUBLIC "-//W3C//DTD SVG 1.1//EN" "http://www.w3.org/Graphics/SVG/1.1/DTD/svg11.dtd">
<svg version="1.1" id="Layer_1" xmlns="http://www.w3.org/2000/svg" xmlns:xlink="http://www.w3.org/1999/xlink" x="0px" y="0px"
	 width="512px" height="512px" viewBox="0 0 512 512" enable-background="new 0 0 512 512" xml:space="preserve">
<g>
	<g>
		<g>
			<linearGradient id="SVGID_1_" gradientUnits="userSpaceOnUse" x1="256.0005" y1="510.4998" x2="256.0005" y2="3.5002">
				<stop  offset="0" style="stop-color:#F5F6F7"/>
				<stop  offset="1" style="stop-color:#FBFBFB"/>
			</linearGradient>
			<path fill="url(#SVGID_1_)" d="M64.5,510.5V3.5h271v112c0,0.552,0.447,1,1,1h111v394H64.5z"/>
			<g>
				<path fill="#B3B3B3" d="M334.5,4.5v111c0,1.104,0.896,2,2,2h110v392h-381V4.5H334.5 M336.5,2.5h-273v509h385v-396h-112V2.5
					L336.5,2.5z"/>
			</g>
		</g>
		<g>
			<linearGradient id="SVGID_2_" gradientUnits="userSpaceOnUse" x1="391.8164" y1="114.4998" x2="391.8164" y2="5.0623">
				<stop  offset="0" style="stop-color:#E1E1E1"/>
				<stop  offset="1" style="stop-color:#F2F2F2"/>
			</linearGradient>
			<polygon fill="url(#SVGID_2_)" points="337.5,114.5 337.5,5.062 446.133,114.5 			"/>
			<g>
				<path fill="#B3B3B3" d="M338.5,7.494L443.73,113.5H338.5V7.5 M336.5,2.635V115.5h112.034L336.5,2.635L336.5,2.635z"/>
			</g>
		</g>
	</g>
</g>
</svg>
