<?xml version="1.0" encoding="utf-8"?>
<!-- Generator: Adobe Illustrator 16.0.0, SVG Export Plug-In . SVG Version: 6.00 Build 0)  -->
<!DOCTYPE svg PUBLIC "-//W3C//DTD SVG 1.1//EN" "http://www.w3.org/Graphics/SVG/1.1/DTD/svg11.dtd">
<svg version="1.1" id="Layer_1" xmlns="http://www.w3.org/2000/svg" xmlns:xlink="http://www.w3.org/1999/xlink" x="0px" y="0px"
	 width="512px" height="512px" viewBox="0 0 512 512" enable-background="new 0 0 512 512" xml:space="preserve">
<polygon points="349.727,408.295 164.274,408.295 188.655,360.387 325.346,360.387 "/>
<rect x="164.274" y="408.295" fill="#3E4548" width="185.453" height="5"/>
<rect x="226.852" y="318.057" fill="#3E4548" width="60.296" height="65.152"/>
<rect x="1" y="17.277" width="512" height="310.857"/>
<g>
	<path fill="#26ADFF" d="M498.804,99.766V31.544H15.197v143.212c78.852-23.686,169.826-43.551,267.46-57.14
		C358.459,107.066,431.432,101.254,498.804,99.766z"/>
	<path fill="#2198E0" d="M498.5,314.5V82.766c-68,1.605-140.541,7.878-216.346,19.265C184.523,116.695,93.5,138.134,14.5,163.693
		V314.5H498.5z"/>
</g>
<polygon fill="#C6D0D7" points="463.804,496.723 50.197,496.723 111.149,424.209 402.852,424.209 "/>
<polygon fill="#3E4548" points="50.197,501.723 463.804,501.723 463.804,496.723 50.197,496.723 "/>
</svg>
