<?xml version="1.0" encoding="utf-8"?>
<!-- Generator: Adobe Illustrator 16.0.0, SVG Export Plug-In . SVG Version: 6.00 Build 0)  -->
<!DOCTYPE svg PUBLIC "-//W3C//DTD SVG 1.1//EN" "http://www.w3.org/Graphics/SVG/1.1/DTD/svg11.dtd">
<svg version="1.1" id="Layer_1" xmlns="http://www.w3.org/2000/svg" xmlns:xlink="http://www.w3.org/1999/xlink" x="0px" y="0px"
	 width="512px" height="512px" viewBox="0 0 512 512" enable-background="new 0 0 512 512" xml:space="preserve">
<g>
	<g opacity="0.5">
		<polygon fill="#7D7D7D" points="73,496.5 439,496.5 387,426.5 136,426.5 		"/>
	</g>
	<polygon fill="#CCCCCC" fill-opacity="0.5" points="407,16 105,16 136,426 387,426 	"/>
	<polygon opacity="0.5" fill="#999999" points="0,108 105.083,16 136,426 73,496 	"/>
	<polygon opacity="0.5" fill="#999999" points="439,496 387,426 406.918,16 512,108 	"/>
	<g>
		<polygon fill-rule="evenodd" clip-rule="evenodd" fill="#A7ADAF" points="221.042,481.394 119.097,464.08 68.737,333.205 
			53.101,90.599 105.509,132.5 95.497,244.479 252.347,373.562 271.977,394.491 283.814,474.577 247.931,462.51 221.042,481.394 		
			"/>
		<polygon fill-rule="evenodd" clip-rule="evenodd" fill="#D0D4D6" points="170.825,27.889 194.119,18.968 207.426,18.968 
			252.312,38.288 171.938,61.796 170.825,27.889 		"/>
		<polygon fill-rule="evenodd" clip-rule="evenodd" fill="#D0D4D6" points="332.087,36.601 366.146,17.997 440.081,75.599 
			384.989,289.18 310.822,295.285 298.81,350.185 271.369,350.185 251.756,312.076 245.397,311.831 232.21,171.451 210.426,111.705 
			210.5,111.5 250.504,132.509 271.5,146.5 291.218,144.659 311.5,95.5 373.5,134.5 332.087,36.601 		"/>
		<polygon fill-rule="evenodd" clip-rule="evenodd" fill="#EEEFEF" points="210.424,111.716 232.21,171.451 245.394,311.831 
			231.407,339.48 252.158,373.603 252.35,373.562 95.5,244.5 158.052,247.881 185.188,207.713 210.133,195.387 193.041,88.751 
			258.373,40.652 295.092,35.54 267.5,63.5 243.244,73.695 210.424,111.716 		"/>
		<polygon fill-rule="evenodd" clip-rule="evenodd" fill="#A7ADAF" points="384.989,289.18 440.081,75.599 438.724,274.612 
			425.104,272.948 398.205,287.282 384.989,289.18 		"/>
		<polygon fill-rule="evenodd" clip-rule="evenodd" fill="#A7ADAF" points="332.087,36.601 421.5,66.5 311.5,95.5 305.088,35.102 
			332.087,36.601 		"/>
		<polygon fill-rule="evenodd" clip-rule="evenodd" fill="#A7ADAF" points="258.373,40.652 193.031,88.7 167.63,99.823 
			171.938,61.796 252.312,38.288 258.373,40.652 		"/>
		<polygon fill-rule="evenodd" clip-rule="evenodd" fill="#E4E6E8" points="305.088,35.102 311.5,95.5 291.221,144.659 267.5,63.5 
			295.092,35.54 305.088,35.102 		"/>
		<polygon fill-rule="evenodd" clip-rule="evenodd" fill="#E4E6E8" points="425.107,272.969 438.724,274.612 438.591,309.518 
			426.603,403.241 425.107,272.969 		"/>
		<polygon fill-rule="evenodd" clip-rule="evenodd" fill="#EFF2F4" points="384.989,289.18 398.203,287.315 416.22,431.794 
			408.444,465.428 310.822,295.285 384.989,289.18 		"/>
		<polygon fill-rule="evenodd" clip-rule="evenodd" fill="#A7ADAF" points="310.822,295.285 408.444,465.428 408.879,464.48 
			345.271,462.943 327.533,462.51 283.405,474.191 283.811,474.577 271.977,394.491 271.369,350.185 298.81,350.185 
			310.822,295.285 		"/>
		<polygon fill-rule="evenodd" clip-rule="evenodd" fill="#D0D4D6" points="416.22,431.794 398.203,287.315 425.104,272.948 
			426.603,403.241 416.22,431.794 		"/>
		<polygon fill-rule="evenodd" clip-rule="evenodd" fill="#E4E6E8" points="283.405,474.191 327.533,462.51 317.15,380.745 
			283.405,474.191 		"/>
		<polygon fill-rule="evenodd" clip-rule="evenodd" fill="#E4E6E8" points="345.271,462.943 408.879,464.48 345.271,462.943 		"/>
		<polygon fill-rule="evenodd" clip-rule="evenodd" fill="#D0D4D6" points="167.63,99.823 193.031,88.7 210.133,195.387 
			185.188,207.713 158.052,247.881 95.5,244.5 105.5,132.5 102.481,36.58 102.598,36.601 167.63,99.823 		"/>
		<polygon fill-rule="evenodd" clip-rule="evenodd" fill="#EFF2F4" points="102.481,36.58 105.5,132.5 53.101,90.599 102.481,36.58 
					"/>
		<polygon fill-rule="evenodd" clip-rule="evenodd" fill="#C2C8CB" points="271.369,350.185 271.977,394.491 252.347,373.562 
			252.156,373.603 251.756,312.076 271.369,350.185 		"/>
		<polygon fill-rule="evenodd" clip-rule="evenodd" fill="#EEEFEF" points="167.63,99.823 102.598,36.601 170.825,27.889 
			171.938,61.796 167.63,99.823 		"/>
		<polygon fill-rule="evenodd" clip-rule="evenodd" fill="#EFF2F4" points="267.5,63.5 291.221,144.659 265.5,114.5 250.5,132.5 
			210.5,111.5 210.426,111.705 243.244,73.695 267.5,63.5 		"/>
		<polygon fill-rule="evenodd" clip-rule="evenodd" fill="#E4E6E8" points="251.756,312.076 252.156,373.603 231.407,339.48 
			245.394,311.831 251.756,312.076 		"/>
		<polygon fill-rule="evenodd" clip-rule="evenodd" fill="#EEEFEF" points="210.5,111.5 250.5,132.5 210.5,111.5 		"/>
		<polygon fill-rule="evenodd" clip-rule="evenodd" fill="#E4E6E8" points="158.052,247.881 185.188,207.713 158.052,247.881 		"/>
	</g>
	<polygon fill="#E6E6E6" fill-opacity="0.5" points="512,108 438.864,496 73.146,496 0,108 	"/>
	<g>
		<path fill-rule="evenodd" clip-rule="evenodd" fill="#0071BC" d="M141.99,351.097c1.73,0.162,3.424,0.458,5.12,0.46
			c31.749,0.029,63.497,0.023,95.246,0.028c3.187,0,3.178,0.009,3.178,3.29c-0.002,17.498-0.038,34.997,0.05,52.495
			c0.01,2.104-0.632,2.591-2.64,2.585c-21.485-0.064-42.971-0.039-64.457-0.031c-3.07,0.002-4.65-2.16-5.988-4.377
			c-3.359-5.564-6.572-11.218-9.8-16.859c-4.417-7.723-8.8-15.464-13.187-23.203c-2.533-4.47-5.048-8.949-7.553-13.434
			C141.868,351.889,141.966,351.623,141.99,351.097z"/>
		<path fill-rule="evenodd" clip-rule="evenodd" fill="#0071BC" d="M291.533,427.03c-1.918-3.253-3.836-6.505-5.756-9.756
			c-5.389-9.136-10.779-18.27-16.166-27.406c-1.43-2.425-2.969-4.799-4.184-7.328c-0.383-0.797-0.184-2.195,0.279-3.022
			c2.644-4.729,5.466-9.359,8.192-14.045c4.038-6.94,8.034-13.905,12.072-20.847c1.802-3.098,3.661-6.162,5.495-9.24
			c0.186,0.042,0.371,0.084,0.557,0.127c0,3.262,0.005,6.524-0.002,9.787c-0.011,6.252-0.014,6.27,6.25,6.271
			c21.18,0.007,42.361,0.033,63.541-0.043c2.555-0.009,5.107-0.605,8.066-0.979c-0.896,1.58-1.693,2.996-2.498,4.407
			c-4.826,8.48-9.672,16.95-14.475,25.444c-2.814,4.974-5.513,10.012-8.354,14.969c-2.334,4.074-4.715,8.127-7.245,12.079
			c-1.132,1.764-2.966,2.515-5.168,2.506c-12.251-0.052-24.501-0.037-36.753-0.03c-2.709,0.001-3.357,0.662-3.363,3.367
			c-0.01,4.53-0.003,9.061-0.003,13.592C291.858,426.93,291.696,426.98,291.533,427.03z"/>
		<path fill-rule="evenodd" clip-rule="evenodd" fill="#0071BC" d="M347.602,206.74c-2.325,4.092-4.314,7.643-6.348,11.169
			c-3.538,6.142-7.111,12.265-10.654,18.405c-2.926,5.071-5.794,10.177-8.795,15.203c-0.354,0.591-1.387,1.101-2.105,1.103
			c-16.906,0.044-33.813,0.013-50.719-0.01c-0.055,0-0.109-0.068-0.555-0.364c2.297-1.4,4.422-2.73,6.583-4.002
			c1.803-1.061,3.745-1.918,5.421-3.146c0.574-0.422,1.02-1.965,0.699-2.529c-4.48-7.914-9.132-15.73-13.688-23.603
			c-4.086-7.062-8.092-14.17-12.155-21.246c-2.519-4.387-5.345-8.623-7.523-13.171c-1.395-2.91-3.923-4.678-6.012-7.413
			c1.027-0.063,1.716-0.144,2.404-0.144c20.82-0.012,41.64-0.05,62.46,0.015c3.176,0.01,5.9,1.301,7.551,4.251
			c5.408,9.66,10.818,19.318,16.215,28.984c0.559,1,0.821,2.285,1.617,2.993c0.604,0.538,2.058,0.799,2.754,0.443
			c3.473-1.78,6.814-3.814,10.217-5.733C345.63,207.573,346.353,207.307,347.602,206.74z"/>
		<path fill-rule="evenodd" clip-rule="evenodd" fill="#0071BC" d="M305.716,284.672c2.798-1.633,5.531-3.252,8.284-4.835
			c8.975-5.157,17.951-10.312,26.938-15.448c4.271-2.44,8.561-4.849,12.853-7.252c2.387-1.335,2.546-1.22,3.97,1.195
			c6.673,11.326,13.459,22.589,20.039,33.969c2.701,4.67,5.723,9.354,7.293,14.435c2.596,8.403,0.49,16.341-4.908,23.337
			c-2.838,3.679-6.148,6.813-10.465,8.654c-1.488,0.635-3.172,1.11-4.773,1.131c-8.34,0.103-16.684,0.01-25.025,0.052
			c-1.32,0.007-2.139-0.347-2.83-1.548c-3.352-5.83-6.803-11.602-10.219-17.396c-6.385-10.831-12.773-21.66-19.146-32.5
			C307.067,287.35,306.508,286.176,305.716,284.672z"/>
		<path fill-rule="evenodd" clip-rule="evenodd" fill="#0071BC" d="M166.065,236.891c4.874-8.423,9.604-16.541,14.277-24.691
			c4.203-7.333,8.326-14.711,12.521-22.048c2.127-3.721,5.53-5.906,9.41-7.393c4.746-1.82,9.709-2.532,14.761-2.21
			c5.385,0.342,10.726,1.388,15.183,4.512c2.327,1.63,4.162,4.172,5.742,6.612c3.376,5.216,6.429,10.641,9.644,15.962
			c0.793,1.311,1.047,2.434,0.163,3.928c-4.416,7.456-8.721,14.978-13.036,22.493c-3.776,6.578-7.508,13.182-11.273,19.767
			c-2.15,3.759-4.348,7.489-6.48,11.257c-0.623,1.102-1.238,1.065-2.259,0.469c-12.156-7.108-24.342-14.168-36.513-21.254
			c-3.493-2.034-6.963-4.104-10.433-6.176C167.226,237.792,166.733,237.376,166.065,236.891z"/>
		<path fill-rule="evenodd" clip-rule="evenodd" fill="#0071BC" d="M207.522,314.823c-4.093-2.249-8.238-4.407-12.253-6.789
			c-1.688-1.002-2.759-1.205-3.844,0.723c-3.008,5.351-6.138,10.632-9.197,15.954c-2.842,4.943-5.64,9.913-8.511,14.84
			c-0.231,0.396-0.877,0.778-1.334,0.781c-9.149,0.06-18.313,0.345-27.438-0.107c-2.5-0.123-5.175-2.15-7.275-3.897
			c-5.816-4.837-9.541-11.213-11.167-18.517c-1.704-7.653-0.288-14.942,4.061-21.663c3.646-5.634,6.985-11.47,10.42-17.239
			c0.641-1.076,0.829-2.024-0.664-2.865c-4.386-2.473-8.674-5.12-13.493-7.992c0.973-0.127,1.469-0.248,1.965-0.248
			c16.601-0.006,33.202,0.01,49.804-0.013c1.529-0.002,2.427,0.473,3.25,1.909c4.816,8.409,9.814,16.715,14.699,25.085
			c3.42,5.86,6.757,11.771,10.137,17.655c0.386,0.672,0.805,1.326,1.208,1.989C207.769,314.561,207.645,314.692,207.522,314.823z"/>
	</g>
</g>
</svg>
