<?xml version="1.0" encoding="utf-8"?>
<!-- Generator: Adobe Illustrator 16.0.0, SVG Export Plug-In . SVG Version: 6.00 Build 0)  -->
<!DOCTYPE svg PUBLIC "-//W3C//DTD SVG 1.1//EN" "http://www.w3.org/Graphics/SVG/1.1/DTD/svg11.dtd">
<svg version="1.1" id="Layer_1" xmlns="http://www.w3.org/2000/svg" xmlns:xlink="http://www.w3.org/1999/xlink" x="0px" y="0px"
	 width="512px" height="512px" viewBox="0 0 512 512" enable-background="new 0 0 512 512" xml:space="preserve">
<g>
	<path fill="#DEDFE0" stroke="#878787" stroke-miterlimit="10" d="M415.5,498.5c0,8.284-6.716,15-15,15h-290
		c-8.284,0-15-6.716-15-15v-482c0-8.284,6.716-15,15-15h290c8.284,0,15,6.716,15,15V498.5z"/>
	<linearGradient id="SVGID_1_" gradientUnits="userSpaceOnUse" x1="256.001" y1="460.9519" x2="256.0009" y2="53.05">
		<stop  offset="0.0108" style="stop-color:#784872"/>
		<stop  offset="0.4194" style="stop-color:#CC8E92"/>
		<stop  offset="1" style="stop-color:#1379E5"/>
	</linearGradient>
	<rect x="113.935" y="53.05" fill="url(#SVGID_1_)" width="284.131" height="407.902"/>
	<rect x="113.935" y="53.05" width="284.131" height="14.902"/>
	<path fill="#3F3F3F" d="M289,25.5c0,1.934-1.566,3.5-3.5,3.5h-61c-1.934,0-3.5-1.566-3.5-3.5l0,0c0-1.933,1.566-3.5,3.5-3.5h61
		C287.434,22,289,23.567,289,25.5L289,25.5z"/>
	<circle fill="none" stroke="#A1A1A1" stroke-miterlimit="10" cx="257.055" cy="483.957" r="17.627"/>
</g>
<g>
	<path fill-rule="evenodd" clip-rule="evenodd" fill="#FFFFFF" d="M275.484,299.719c0,2.047,0.007,3.783-0.007,5.521
		c-0.028,3.752-0.043,7.503-0.115,11.255c-0.07,3.957-4.467,6.779-7.598,6.505c-3.862-0.334-6.825-3.345-6.853-7.33
		c-0.036-5.183-0.008-10.364-0.008-15.705c-3.264-0.624-6.423-0.133-9.477-0.318c-0.441,0.996-0.325,1.817-0.325,2.62
		c-0.014,4.379-0.102,8.762,0.021,13.138c0.101,3.735-3.439,7.881-7.482,7.632c-3.998-0.248-7.123-3.25-7.178-7.612
		c-0.059-4.688-0.059-9.384,0.015-14.072c0.021-1.246-0.36-1.692-1.58-1.629c-1.311,0.068-2.628,0.068-3.942,0.018
		c-4.316-0.161-7.64-3.527-7.734-7.842c-0.339-15.136-0.08-30.271-0.164-45.408c-0.007-1.525,0.448-2.094,2.017-2.09
		c20.58,0.043,41.163,0.046,61.743,0.018c1.521-0.003,2.002,0.433,1.995,2.033c-0.073,14.765-0.066,29.526-0.034,44.287
		c0.006,5.792-3.237,9.072-9.041,8.984C278.434,299.705,277.13,299.719,275.484,299.719z"/>
	<path fill-rule="evenodd" clip-rule="evenodd" fill="#FFFFFF" d="M305.995,265.627c0,5.121,0.05,10.246-0.014,15.367
		c-0.045,3.29-2.09,5.892-5.154,6.793c-3.148,0.93-6.385-0.213-8.257-2.883c-0.948-1.348-1.207-2.876-1.207-4.447
		c-0.014-9.997-0.027-19.994,0.043-29.988c0.031-4.454,3.145-7.449,7.446-7.406c4.05,0.037,7.102,3.248,7.129,7.568
		c0.028,4.999,0.007,9.998,0.007,14.996H305.995z"/>
	<path fill-rule="evenodd" clip-rule="evenodd" fill="#FFFFFF" d="M220.44,265.972c0,4.998,0.049,10.001-0.021,14.999
		c-0.06,4.155-3.149,7.183-7.094,7.13c-4.179-0.055-7.279-3.021-7.301-7.15c-0.041-10.128-0.056-20.254-0.014-30.381
		c0.014-4.379,3.1-7.557,7.136-7.536c4.274,0.022,7.342,3.232,7.359,7.749c0.014,5.064,0,10.126,0,15.19
		C220.483,265.972,220.461,265.972,220.44,265.972z"/>
	<path fill-rule="evenodd" clip-rule="evenodd" fill="#FFFFFF" d="M288.697,239.272c-0.027-0.372-0.074-0.747-0.129-1.114
		c-1.297-8-5.046-14.538-11.606-19.384c-1.533-1.136-3.12-2.209-4.756-3.367c1.542-2.861,3.04-5.583,4.47-8.347
		c0.301-0.594,0.922-1.466-0.073-1.96c-1.052-0.522-1.311,0.469-1.73,1.161c-1.663,2.752-2.81,5.816-4.844,8.278
		c-9.505-3.69-18.892-3.755-28.369-0.102c-0.238-0.4-0.503-0.814-0.741-1.243c-1.293-2.353-2.555-4.717-3.858-7.063
		c-0.523-0.958-1.188-1.657-2.422-0.627c0.814,2.71,2.475,4.988,3.819,7.405c1.3,2.333,1.283,2.643-0.992,4.087
		c-8.418,5.349-13.377,12.844-14.306,22.895c-0.116,1.334,0.314,1.877,1.554,1.95c0.563,0.032,1.126,0.039,1.688,0.039
		c19.938,0,39.881,0.004,59.825,0C288.826,241.881,288.9,241.794,288.697,239.272z M243.743,227.433
		c-0.088,1.499-1.363,2.591-2.904,2.486c-1.541-0.107-2.667-1.344-2.589-2.85c0.081-1.482,1.363-2.657,2.841-2.603
		C242.719,224.532,243.83,225.78,243.743,227.433z M273.632,227.433c-0.076,1.499-1.353,2.591-2.904,2.486
		c-1.534-0.107-2.658-1.344-2.579-2.85c0.069-1.482,1.363-2.657,2.838-2.603C272.608,224.532,273.727,225.78,273.632,227.433z"/>
</g>
</svg>
