<?xml version="1.0" encoding="utf-8"?>
<!-- Generator: Adobe Illustrator 16.0.0, SVG Export Plug-In . SVG Version: 6.00 Build 0)  -->
<!DOCTYPE svg PUBLIC "-//W3C//DTD SVG 1.1//EN" "http://www.w3.org/Graphics/SVG/1.1/DTD/svg11.dtd">
<svg version="1.1" id="Layer_1" xmlns="http://www.w3.org/2000/svg" xmlns:xlink="http://www.w3.org/1999/xlink" x="0px" y="0px"
	 width="512px" height="512px" viewBox="0 0 512 512" enable-background="new 0 0 512 512" xml:space="preserve">
<g>
	<path fill="#F5F5F5" stroke="#878787" stroke-miterlimit="10" d="M415.5,498.5c0,8.283-6.716,15-15,15h-290
		c-8.284,0-15-6.717-15-15v-482c0-8.284,6.716-15,15-15h290c8.284,0,15,6.716,15,15V498.5z"/>
	<rect x="113.935" y="53.05" fill="#5489B3" width="284.131" height="407.901"/>
	<path fill="#969696" d="M289,25.5c0,1.935-1.566,3.5-3.5,3.5h-61c-1.934,0-3.5-1.565-3.5-3.5l0,0c0-1.934,1.566-3.5,3.5-3.5h61
		C287.434,22,289,23.567,289,25.5L289,25.5z"/>
</g>
<g>
	<path fill="#F5F5F5" d="M278.5,486.996c0,4.677-3.827,8.504-8.504,8.504h-33.992c-4.677,0-8.504-3.827-8.504-8.504v-0.992
		c0-4.677,3.827-8.504,8.504-8.504h33.992c4.677,0,8.504,3.827,8.504,8.504V486.996z"/>
	<path fill="none" stroke="#878787" stroke-miterlimit="10" d="M278.5,486.996c0,4.677-3.827,8.504-8.504,8.504h-33.992
		c-4.677,0-8.504-3.827-8.504-8.504v-0.992c0-4.677,3.827-8.504,8.504-8.504h33.992c4.677,0,8.504,3.827,8.504,8.504V486.996z"/>
</g>
</svg>
