<?xml version="1.0" encoding="utf-8"?>
<!-- Generator: Adobe Illustrator 16.0.0, SVG Export Plug-In . SVG Version: 6.00 Build 0)  -->
<!DOCTYPE svg PUBLIC "-//W3C//DTD SVG 1.1//EN" "http://www.w3.org/Graphics/SVG/1.1/DTD/svg11.dtd">
<svg version="1.1" id="Layer_1" xmlns="http://www.w3.org/2000/svg" xmlns:xlink="http://www.w3.org/1999/xlink" x="0px" y="0px"
	 width="512px" height="512px" viewBox="0 0 512 512" enable-background="new 0 0 512 512" xml:space="preserve">
<g>
	<path fill-rule="evenodd" clip-rule="evenodd" fill="#0E0807" d="M169.599,90.162c1.467-0.575,1.5-2.053,1.977-3.194
		c1.934-4.632,4.319-9.487,8.481-11.872c4.36-2.497,8.588-5.544,14.082-6.456c3.947-0.656,8.046-1.135,12.024-1.943
		c4.142-0.842,8.708-0.418,12.955,0.277c4.607,0.756,8.954,2.812,13.655,3.487c3.82,0.547,6.847,3.396,10.801,3.905
		c1.5,0.193,2.487,2.159,2.309,3.727c-0.31,2.719,0.733,5.536,0.344,7.869c-0.637,3.812-0.454,7.977-2.688,11.49
		c-1.772,2.787-2.556,6.169-3.636,9.12c-1.768,4.83-5.599,7.779-8.364,11.399c-2.525,3.306-6.223,6.751-10.743,8.304
		c-0.959,0.329-2.065,0.456-2.811,1.792c5.123,3.285,9.636,7.265,12.751,12.652c2.86,4.946,4.509,10.247,4.623,15.927
		c0.058,2.876,1.115,4.936,3.291,6.687c15.056,12.12,17.48,30.243,6.302,46.026c-2.848,4.021-3.782,8.823-4.13,13.591
		c-1.194,16.313-9.506,26.784-24.382,33.622c-8.313,3.821-16.822,7.916-23.9,14.271c-13.827,12.412-33.973,12.015-47.512-0.57
		c-1.045-0.971-2.048-2.189-3.311-2.691c-8.024-3.188-14.871-8.48-22.466-12.389c-11.176-5.75-17.634-14.521-20.6-26.782
		c-1.637-6.767-3.493-13.698-7.571-19.821c-9.799-14.717-7.26-31.938,6.109-43.475c2.768-2.388,4.079-4.985,4.213-8.704
		c0.414-11.579,5.763-20.536,15.297-27.055c0.914-0.623,2.521-0.731,2.449-2.199c-0.065-1.343-1.867-0.869-2.379-1.543
		c-2.94-3.88-8.529-4.916-10.46-9.878c-0.349-0.896-1.28-1.586-2.007-2.307c-3.716-3.679-5.488-8.314-7.285-13.137
		c-1.38-3.706-2.492-7.416-3.473-11.217c-0.433-1.675-1.08-3.326-0.172-4.891c0.882-1.52,0.707-2.826,0.261-4.426
		c-0.608-2.178,0.082-4.912,2.16-5.253c4.634-0.759,8.178-4.588,13.057-4.262c2.848,0.189,5.176-1.602,7.643-2.421
		c4.455-1.481,8.949-0.382,13.271-1.532c0.613-0.164,1.33-0.333,1.909-0.172c5.537,1.53,11.541,1.194,16.818,3.167
		c8.549,3.195,16.117,8.063,19.292,17.512C168.174,87.959,168.371,89.369,169.599,90.162z"/>
	<path fill-rule="evenodd" clip-rule="evenodd" fill="#54F401" d="M215.201,89.07c-9.54,3.19-18.198,8.076-26.453,13.738
		c-0.642,0.441-1.192,1.064-1.89,1.366c-2.206,0.953-3.523,4.439-6.683,2.635c-3.685-2.102-5.767-5.467-5.456-9.668
		c0.465-6.272,3.093-11.746,7.42-16.357c0.265-0.284,0.646-0.845,0.799-0.791c3.939,1.425,5.768-3.938,7.22-3.556
		c3.578,0.941,5.576-0.259,7.765-2.348c2.824,3.225,5.412-1.316,7.111-0.586c3.116,1.338,5.393,0.553,8.018-0.497
		c0.314-0.125,1.195,0.281,1.265,0.574c0.763,3.151,2.604,1.459,4.205,1.029c1.469-0.394,3.011-1.194,3.561,1.349
		c0.421,1.947,1.865,0.398,2.846,0.522c2.306,0.288,5.4-2.974,6.858,1.797c0.363,1.19,3.124,0.674,4.771,0.582
		c2.533-0.143,3.886,0.025,2.129,3.034c-0.904,1.55-3.105,3.381,0.432,5.311c1.624,0.887-1.002,2.322-1.813,3.449
		c-0.813,1.126-4.188,2.272,0.109,3.338c1.107,0.275,0.437,1.159,0.026,1.844c-1.226,2.049-5.424,2.946-2.643,6.645
		c0.07,0.092-0.793,0.882-1.217,1.352c-1.287,1.429-3.84,1.833-2.824,5.008c0.439,1.371-2.25,2.164-3.673,2.993
		c-1.304,0.761-2.844,0.952-2.324,3.304c0.452,2.039-1.963,1.522-3.049,2.183c-1.314,0.799-3.445,0.006-3.412,3.07
		c0.015,1.494-3.222,1.526-5.106,1.796c-1.39,0.198-2.981-0.139-3.224,1.941c-0.113,0.969-0.9,1.343-1.693,1.244
		c-7.748-0.972-15.614-1.625-20.755-8.836c-1.967-2.758-2.131-4.854,0.63-7.375c7.249-6.621,15.429-11.835,23.842-16.764
		c1.348-0.789,3.335-1.123,3.158-3.387c0.162-0.036,0.322-0.072,0.48-0.111c-0.06-0.007-0.131-0.041-0.175-0.018
		C215.364,88.928,215.285,89.005,215.201,89.07z"/>
	<path fill-rule="evenodd" clip-rule="evenodd" fill="#54F401" d="M124.132,89.534c-0.523,1.949,1.115,1.786,2.025,2.267
		c9.313,4.924,17.969,10.765,25.692,17.983c2.032,1.899,2.045,3.528,0.719,5.773c-2.798,4.734-7.197,6.991-12.241,8.292
		c-2.386,0.615-4.828,1.025-7.258,1.446c-1.008,0.176-2.741,0.43-2.896-0.381c-0.666-3.487-3.536-2.294-5.52-3.012
		c-1.51-0.546-3.906-0.044-3.67-2.966c0.069-0.855-1.084-0.963-1.801-1.206c-2.211-0.747-5.025-0.777-4.559-4.416
		c0.093-0.726-1.098-0.941-1.763-1.329c-1.957-1.143-5.044-1.454-3.714-5.143c0.149-0.414-1.277-1.455-2.044-2.126
		c-1.241-1.086-3.595-1.634-1.522-4.06c0.545-0.637-0.316-1.345-0.783-1.978c-1.173-1.587-4.38-2.63-1.067-5.443
		c1.093-0.928-1.046-1.988-1.892-2.861c-1.116-1.151-2.956-1.906-0.311-3.747c1.972-1.373,0.235-3.436-0.712-4.776
		c-2.044-2.892-0.741-2.96,1.882-3.059c2.024-0.076,4.783,1.529,5.812-2.475c0.413-1.607,3.527-0.057,5.398,0.064
		c1.521,0.098,3.024,1.524,3.779-1.389c0.445-1.722,2.464-0.479,3.767-0.194c1.47,0.323,3.061,1.941,3.686-1.193
		c0.344-1.728,1.852-0.476,2.872-0.126c1.829,0.626,3.629,2.94,5.531-0.073c0.412-0.651,1.395,0.181,2.092,0.489
		c1.625,0.716,3.148,3.502,5.041,0.295c0.09-0.153,0.817-0.141,1.064,0.041c2.149,1.582,3.854,4.717,7.165,1.896
		c2.074,4.333,7.873,2.9,10.355,6.81c2.827,4.455,5.22,9.03,5.47,14.38c0.109,2.341-0.643,4.594-2.081,6.569
		c-2.727,3.742-4.723,4.258-8.327,1.529c-8.937-6.768-18.646-12.076-29.162-15.927C124.855,89.379,124.46,89.514,124.132,89.534z"/>
	<path fill-rule="evenodd" clip-rule="evenodd" fill="#E70938" d="M164.748,174.984c-0.322,13.451-9.98,25.369-22.462,27.714
		c-12.374,2.324-23.563-6.674-23.957-19.269c-0.407-13.029,7.463-24.746,19.219-28.61
		C151.843,150.121,165.107,159.954,164.748,174.984z"/>
	<path fill-rule="evenodd" clip-rule="evenodd" fill="#E70938" d="M174.564,173.66c-0.141-16.711,14.324-25.69,29.314-18.203
		c11.613,5.8,18.37,19.546,15.509,31.55c-2.878,12.075-14.74,18.197-26.345,13.598C182.08,196.26,174.662,185.443,174.564,173.66z"
		/>
	<path fill-rule="evenodd" clip-rule="evenodd" fill="#E70938" d="M145.595,220.849c-0.118-15.043,15.868-24.484,28.606-21.986
		c11.843,2.322,19.623,10.583,20.083,20.714c0.657,14.453-13.632,25.946-28.966,23.299
		C153.366,240.813,145.462,231.986,145.595,220.849z"/>
	<path fill-rule="evenodd" clip-rule="evenodd" fill="#E70938" d="M233.963,221.845c0.043,15.468-12.354,28.708-27.204,29.623
		c-6.523,0.402-10.15-2.731-10.333-9.294c-0.292-10.478,4.923-18.625,11.628-25.972c3.892-4.265,8.346-7.836,14.318-8.876
		c5.004-0.872,8.681,1.381,10.06,6.297C233.239,216.496,234.209,219.348,233.963,221.845z"/>
	<path fill-rule="evenodd" clip-rule="evenodd" fill="#E70938" d="M105.242,222.706c0-1.169-0.116-2.353,0.019-3.505
		c0.85-7.222,5.699-10.44,12.71-8.483c11.741,3.276,23.774,19.601,23.353,31.683c-0.219,6.274-4.263,9.755-10.509,9.047
		C116.395,249.814,105.182,237.245,105.242,222.706z"/>
	<path fill-rule="evenodd" clip-rule="evenodd" fill="#E70938" d="M169.693,151.527c-6.201,0.217-11.918-1.262-17.162-4.435
		c-6.52-3.945-6.896-9.652-1.022-14.513c10.671-8.831,24.751-8.928,35.407-0.094c2.707,2.244,5.583,4.911,4.754,8.833
		c-1.065,5.031-5.408,7.099-9.756,8.609C177.979,151.291,173.855,152.008,169.693,151.527z"/>
	<path fill-rule="evenodd" clip-rule="evenodd" fill="#E70938" d="M172.006,250.599c4.265-0.091,9.891,0.641,15.328,2.617
		c6.533,2.375,7.172,5.703,2.501,10.874c-10.735,11.886-31.166,11.913-41.905-0.538c-2.833-3.284-2.756-5.642,0.888-7.975
		C155.433,251.343,162.897,250.596,172.006,250.599z"/>
	<path fill-rule="evenodd" clip-rule="evenodd" fill="#E70938" d="M110.615,181.058c-0.079,7.575-1.453,14.917-4.281,21.959
		c-0.523,1.303-1.373,2.493-2.18,3.661c-1.858,2.693-3.745,2.644-5.958,0.225c-9.955-10.88-7.239-30.453,5.368-38.248
		c2.819-1.742,5.159-0.767,6.073,2.754C110.454,174.551,110.862,177.777,110.615,181.058z"/>
	<path fill-rule="evenodd" clip-rule="evenodd" fill="#E70938" d="M226.31,178.012c-0.253-3.198,0.56-6.213,1.411-9.221
		c0.723-2.549,2.256-2.847,4.461-1.693c13.857,7.252,17.163,28.841,6.073,39.676c-1.824,1.784-3.46,1.646-4.857-0.375
		c-0.954-1.38-1.859-2.849-2.463-4.403C227.944,194.284,226.938,186.177,226.31,178.012z"/>
	<path fill-rule="evenodd" clip-rule="evenodd" fill="#E70938" d="M200.42,130.632c15.492-0.037,27.74,11.872,28.174,26.324
		c0.12,3.988-0.955,4.709-4.634,2.749c-7.391-3.937-13.904-9.092-19.875-14.929c-2.881-2.815-5.768-5.65-8.387-8.704
		c-2.796-3.26-2.242-4.551,1.929-5.244C198.901,130.617,200.214,130.644,200.42,130.632z"/>
	<path fill-rule="evenodd" clip-rule="evenodd" fill="#E70938" d="M135.852,130.458c2.108,0.311,5.325-0.514,6.445,1.98
		c1.063,2.367-1.678,4.17-3.15,5.78c-7.403,8.099-15.803,15.04-25.329,20.536c-1.405,0.81-3.111,2.09-4.699,1.203
		c-1.73-0.967-0.923-3.073-0.873-4.658C108.659,142.123,121.617,130.387,135.852,130.458z"/>
</g>
</svg>
