<?xml version="1.0" encoding="utf-8"?>
<!-- Generator: Adobe Illustrator 16.0.0, SVG Export Plug-In . SVG Version: 6.00 Build 0)  -->
<!DOCTYPE svg PUBLIC "-//W3C//DTD SVG 1.1//EN" "http://www.w3.org/Graphics/SVG/1.1/DTD/svg11.dtd">
<svg version="1.1" id="Layer_1" xmlns="http://www.w3.org/2000/svg" xmlns:xlink="http://www.w3.org/1999/xlink" x="0px" y="0px"
	 width="300px" height="134.582px" viewBox="0 0 300 134.582" enable-background="new 0 0 300 134.582" xml:space="preserve">
<g>
	<g>
		<path fill="#FFFFFF" d="M152.359,134.582c-26.926,0-48.834-21.908-48.834-48.834c0-26.931,21.906-48.834,48.834-48.834
			c26.929,0,48.834,21.904,48.834,48.834C201.195,112.674,179.287,134.582,152.359,134.582z M152.157,41.268
			c-24.414,0-44.276,19.863-44.276,44.277c0,24.412,19.862,44.271,44.276,44.271c24.413,0,44.274-19.859,44.274-44.271
			C196.434,61.131,176.57,41.268,152.157,41.268z"/>
	</g>
	<g>
		<path fill="#FFFFFF" d="M48.832,134.582C21.907,134.582,0,112.674,0,85.748c0-26.931,21.907-48.834,48.832-48.834
			c26.928,0,48.833,21.904,48.833,48.834C97.666,112.674,75.76,134.582,48.832,134.582z M48.629,41.268
			c-24.413,0-44.275,19.863-44.275,44.277c0,24.412,19.862,44.271,44.275,44.271c24.414,0,44.276-19.859,44.276-44.271
			C92.906,61.131,73.043,41.268,48.629,41.268z"/>
	</g>
	<g>
		<rect fill="#FFFFFF" width="4.558" height="134.582"/>
	</g>
	<polygon fill="#FFFFFF" points="299.998,36.914 293.553,36.914 247.943,82.523 202.332,36.914 195.887,36.914 244.721,85.748 
		195.887,134.582 202.331,134.582 247.943,88.971 293.553,134.582 300,134.582 251.166,85.748 	"/>
</g>
</svg>
