<?xml version="1.0" encoding="utf-8"?>
<!-- Generator: Adobe Illustrator 16.0.0, SVG Export Plug-In . SVG Version: 6.00 Build 0)  -->
<!DOCTYPE svg PUBLIC "-//W3C//DTD SVG 1.1//EN" "http://www.w3.org/Graphics/SVG/1.1/DTD/svg11.dtd">
<svg version="1.1" id="Layer_1" xmlns="http://www.w3.org/2000/svg" xmlns:xlink="http://www.w3.org/1999/xlink" x="0px" y="0px"
	 width="512px" height="512px" viewBox="0 0 512 512" enable-background="new 0 0 512 512" xml:space="preserve">
<path fill="#49AA41" d="M511.999,392c0,66-54,120-119.998,120h-272c-66,0-120-54-120-120V120c0-66,54-120,120-120h272
	c65.998,0,119.998,54,119.998,120V392z"/>
<path fill-rule="evenodd" clip-rule="evenodd" fill="#FFFFFF" d="M358.07,242.779c-27.346,0-54.696,0.087-82.045-0.027
	c-20.464-0.086-36.947-8.008-50.35-23.894c-19.23-22.793-47.126-28.141-72.267-15.117c-24.865,12.881-36.486,39.322-29.094,67.938
	c5.509,21.326,19.584,35.267,40.742,40.693c23.295,5.977,44.408,0.314,59.785-18.458c14.481-17.681,32.412-24.907,54.565-24.832
	c56.279,0.188,112.559,0.03,168.838,0.029c14.529,0,19.424,5.521,16.428,19.64c-10.204,48.052-36.682,85.695-77.439,111.934
	c-78.677,50.646-160.579,52.703-243.205,10.065c-16.55-8.54-30.533-22.149-45.333-33.888c-2.387-1.894-2.841-6.223-4.188-9.428
	c3.044-1.103,6.083-3.145,9.133-3.163c38.865-0.217,77.736-0.524,116.595,0.019c19.232,0.27,34.165,10.129,46.055,24.829
	c9.697,11.992,22.391,18.318,37.562,20.224c27.995,3.516,55.159-14.221,63.063-41.323c8.085-27.72-5.069-57.752-30.592-69.843
	c-24.044-11.39-51.822-6.768-69.421,14.307c-15.871,19.002-35.136,25.775-59.005,25.342c-38.232-0.694-76.487-0.076-114.731-0.237
	c-21.528-0.091-29.462-5.566-37.075-25.63c-14.18-37.373-11.93-75.062-0.351-112.397c5.641-18.192,18.234-26.054,37.519-26.102
	c39.178-0.095,78.355,0.074,117.532-0.102c22.373-0.102,40.815,6.895,55.467,24.945c18.465,22.751,51.378,27.148,75.884,11.727
	c24.693-15.539,34.837-46.883,22.106-73.606c-18.087-37.966-61.92-45.856-91.395-20.863c-3.771,3.2-7.336,6.751-10.47,10.572
	c-11.653,14.205-26.896,20.88-44.885,20.991c-37.31,0.233-74.624,0.105-111.934-0.171c-3.694-0.028-7.374-2.099-11.061-3.222
	c1.802-3.649,2.787-8.135,5.53-10.825c34.991-34.276,77.373-53.62,125.645-59.59c66.326-8.205,126.855,6.634,178.677,49.896
	c31.37,26.186,52.443,59.482,60.75,100.067c2.407,11.756-1.797,18.63-13.899,19.238c-21.375,1.073-42.825,0.716-64.246,0.897
	c-9.628,0.082-19.26,0.015-28.89,0.015C358.072,243.21,358.07,242.995,358.07,242.779z"/>
</svg>
