<?xml version="1.0" encoding="utf-8"?>
<!-- Generator: Adobe Illustrator 16.0.0, SVG Export Plug-In . SVG Version: 6.00 Build 0)  -->
<!DOCTYPE svg PUBLIC "-//W3C//DTD SVG 1.1//EN" "http://www.w3.org/Graphics/SVG/1.1/DTD/svg11.dtd">
<svg version="1.1" id="Layer_1" xmlns="http://www.w3.org/2000/svg" xmlns:xlink="http://www.w3.org/1999/xlink" x="0px" y="0px"
	 width="512px" height="512px" viewBox="0 0 512 512" enable-background="new 0 0 512 512" xml:space="preserve">
<g>
	<linearGradient id="SVGID_1_" gradientUnits="userSpaceOnUse" x1="256" y1="511.999" x2="256" y2="9.765625e-004">
		<stop  offset="0" style="stop-color:#E2E5E9"/>
		<stop  offset="1" style="stop-color:#FEFEFE"/>
	</linearGradient>
	<path fill="url(#SVGID_1_)" d="M512,391.999c0,66-54,120-120,120H120c-66,0-120-54-120-120V120.001c0-66,54-120,120-120h272
		c66,0,120,54,120,120V391.999z"/>
	<g>
		<path fill="#929497" d="M414.002,283.565v-55.129l-39.832-10.086c-2.129-6.688-4.824-13.113-8.002-19.256l21.049-35.318
			l-38.984-38.984l-35.324,21.045c-6.143-3.176-12.57-5.867-19.256-7.996l-10.086-39.832h-55.133l-10.086,39.832
			c-6.686,2.129-13.115,4.82-19.256,8.002l-35.324-21.051l-38.984,38.984l21.051,35.318c-3.18,6.143-5.875,12.568-8.004,19.256
			l-39.832,10.086v55.129l39.832,10.086c2.129,6.684,4.824,13.117,8.004,19.252l-21.051,35.326l38.984,38.977l35.324-21.047
			c6.141,3.182,12.57,5.871,19.256,8.002l10.086,39.83h55.133l10.086-39.83c6.686-2.131,13.115-4.82,19.256-8.002l35.324,21.047
			l38.984-38.977l-21.049-35.326c3.178-6.135,5.873-12.568,8.002-19.252L414.002,283.565z M256,323.659
			c-37.311,0-67.664-30.35-67.664-67.66c0-37.305,30.354-67.656,67.664-67.656s67.664,30.352,67.664,67.656
			C323.664,293.31,293.311,323.659,256,323.659z"/>
	</g>
</g>
</svg>
